<svg xmlns="http://www.w3.org/2000/svg" xmlns:xlink="http://www.w3.org/1999/xlink" width="1080" zoomAndPan="magnify" viewBox="0 0 810 809.999993" height="1080" preserveAspectRatio="xMidYMid meet" version="1.0"><defs><g/></defs><rect x="-81" width="972" fill="#ffffff" y="-80.999999" height="971.999992" fill-opacity="1"/><rect x="-81" width="972" fill="#000000" y="-80.999999" height="971.999992" fill-opacity="1"/><path stroke-linecap="butt" transform="matrix(0.768594, -0.086681, 0.086681, 0.768594, 13.62191, 345.863938)" fill="none" stroke-linejoin="miter" d="M 76.812402 31.237655 L 74.562929 37.799368 C 73.648106 42.305869 72.077781 45.910025 69.860858 48.623002 C 67.639484 51.330395 65.030135 53.241848 62.023341 54.35121 C 59.021566 55.461138 55.88542 55.869798 52.625508 55.573302 C 49.360012 55.281259 46.19311 54.385373 43.125368 52.880626 C 40.057061 51.380898 37.344273 49.387619 34.996475 46.906942 C 32.643659 44.425698 30.916154 41.537237 29.803923 38.240427 C 28.696711 34.944183 28.43102 31.351505 29.021341 27.469109 C 29.60721 23.581129 31.305449 19.518743 34.111605 15.276367 C 35.485913 13.184969 37.785055 10.328794 41.019635 6.703956 C 44.24863 3.08357 48.085768 -1.017122 52.524332 -5.58363 C 50.433694 -5.387411 48.346377 -5.175571 46.257362 -4.948675 C 44.168346 -4.721779 42.081029 -4.509939 39.990391 -4.31372 C 38.224899 -4.116408 36.791267 -4.608443 35.678326 -5.780919 C 34.57097 -6.957847 33.820605 -8.506184 33.427797 -10.430946 C 33.035555 -12.360727 33.051661 -14.351185 33.476679 -16.407337 C 33.901698 -18.463489 34.749592 -20.258492 36.02538 -21.791779 C 37.296149 -23.325633 39.042772 -24.256928 41.265249 -24.585666 C 46.48407 -25.435395 51.984342 -26.166982 57.767197 -26.790464 C 63.544468 -27.409494 69.434825 -27.949701 75.442721 -28.405498 C 80.925507 -33.758896 86.524851 -39.109313 92.236866 -44.467353 C 97.948314 -49.820374 103.518869 -54.96058 108.933473 -59.889669 C 114.353095 -64.818192 119.40003 -69.326255 124.068125 -73.404385 C 128.736787 -77.487534 132.833267 -80.913522 136.35813 -83.687367 C 139.882994 -86.461212 142.558715 -88.375345 144.389181 -89.419161 C 149.284962 -92.226442 154.198482 -93.613752 159.124724 -93.581658 C 164.055984 -93.548997 168.415666 -92.549085 172.199885 -90.592525 C 174.876514 -91.703546 177.361425 -91.880711 179.645146 -91.13017 C 181.928867 -90.379629 183.888652 -89.010001 185.518916 -87.016832 C 187.154765 -85.028116 188.344005 -82.774663 189.097241 -80.26036 C 189.845459 -77.746623 190.024888 -75.281786 189.635528 -72.865849 C 189.24115 -70.450479 188.132483 -68.461263 186.303944 -66.89375 C 184.343565 -65.193717 181.866172 -62.469457 178.86116 -58.717081 C 175.855583 -54.959688 172.641494 -50.570189 169.21331 -45.544132 C 165.785126 -40.518076 162.374301 -35.195286 158.981399 -29.580783 C 159.047205 -29.578443 159.108559 -29.581689 159.174366 -29.579349 C 159.240738 -29.582029 159.306545 -29.579689 159.372351 -29.57735 C 161.199877 -29.51355 162.635661 -28.635015 163.679137 -26.936729 C 164.727632 -25.237876 165.316011 -23.199575 165.443707 -20.816808 C 165.576422 -18.433474 165.248492 -16.066515 164.464935 -13.715365 C 163.681378 -11.364214 162.376499 -9.437786 160.54528 -7.936645 C 158.71908 -6.434938 156.369972 -5.749471 153.497956 -5.880245 C 152.257255 -6.010005 151.04723 -6.141387 149.872335 -6.268808 C 148.698006 -6.401247 147.489604 -6.501953 146.246563 -6.565906 C 143.831852 -1.603433 141.857182 3.017328 140.323121 7.291358 C 138.788493 11.570407 137.957245 15.110526 137.828811 17.916735 C 137.824705 20.07118 138.152574 21.805655 138.803511 23.108991 C 139.459467 24.412893 140.552257 24.952887 142.087464 24.724522 C 143.622671 24.496156 145.629726 23.238469 148.108065 20.956477 C 149.873137 19.320818 151.832269 17.361447 153.985462 15.078362 C 156.138654 12.795278 158.277432 10.459745 160.40123 8.076781 C 162.52001 5.693251 164.414769 3.538573 166.080489 1.612181 C 167.746209 -0.314211 168.968266 -1.731582 169.752809 -2.649404 C 170.534446 -3.496401 171.580972 -3.988255 172.886234 -4.115495 C 174.192061 -4.247754 175.516229 -4.001852 176.854284 -3.383374 C 178.191772 -2.759877 179.333503 -1.797612 180.278909 -0.49156 C 181.229334 0.815058 181.751377 2.495196 181.850055 4.549422 C 181.948168 6.608667 181.342447 9.005285 180.036779 11.749879 C 178.862609 14.229776 177.375973 17.136926 175.577438 20.466309 C 173.78392 23.796259 171.730347 27.223938 169.411699 30.74878 C 167.093051 34.273623 164.579474 37.634177 161.870401 40.835459 C 159.161328 44.036742 156.28902 46.7927 153.252345 49.113369 C 150.216237 51.42902 147.030137 53.046723 143.700196 53.957007 C 140.374708 54.872875 136.946545 54.806438 133.42016 53.763281 C 129.830307 52.651979 126.31905 50.888837 122.891408 48.474422 C 119.463765 46.060008 116.428054 43.054503 113.783709 39.462927 C 111.139363 35.871351 109.112706 31.759887 107.709322 27.124082 C 106.305939 22.488277 105.770527 17.411633 106.09807 11.893585 C 106.420028 6.37999 107.892617 0.487928 110.500216 -5.77928 C 110.630809 -6.171138 110.797097 -6.564053 110.994062 -6.958591 C 111.190462 -7.34811 111.351731 -7.741591 111.482324 -8.133449 C 108.872327 -8.199096 106.423979 -8.210936 104.138412 -8.179006 C 101.852844 -8.147077 100.449551 -8.096963 99.924081 -8.034248 C 93.853196 0.190412 88.857702 7.667274 84.943182 14.391887 C 81.023644 21.115933 78.31673 26.731566 76.812402 31.237655 Z M 142.331005 -62.87756 C 138.740225 -59.02353 134.677823 -54.277375 130.137647 -48.629625 C 125.60249 -42.981309 120.917082 -36.856951 116.082554 -30.26659 C 117.324689 -30.329797 118.532751 -30.361271 119.70674 -30.36101 C 120.886313 -30.365203 122.05868 -30.395619 123.235008 -30.461166 C 126.302764 -36.076762 129.450665 -41.591839 132.684296 -47.010847 C 135.917926 -52.429855 139.131823 -57.718948 142.331005 -62.87756 Z M 202.458603 -21.450204 C 202.522796 -18.774741 202.769803 -17.044303 203.194604 -16.259457 C 203.614387 -15.475176 204.253925 -15.377638 205.103182 -15.967975 C 205.951872 -16.553293 207.092954 -17.568128 208.530316 -19.001876 C 209.704565 -20.175605 210.878739 -21.303601 212.05729 -22.380281 C 213.230823 -23.457526 214.437071 -24.419271 215.681618 -25.269967 C 217.769497 -26.838726 220.069663 -27.946464 222.582684 -28.598198 C 225.09627 -29.25495 227.512394 -29.317897 229.832187 -28.797075 C 232.146396 -28.2718 234.058486 -27.065103 235.557853 -25.173096 C 237.062239 -23.280524 237.81008 -20.538124 237.811413 -16.944766 C 237.941051 -9.306649 238.400886 -3.379615 239.181446 0.830185 C 239.967025 5.040552 241.337386 7.715936 243.296981 8.86192 C 245.257143 10.002886 247.964641 9.789837 251.424494 8.223337 C 254.884348 6.656837 259.325483 3.915175 264.742883 -0.00221527 C 268.399209 -2.679917 271.503504 -4.067976 274.05075 -4.166958 C 276.592412 -4.261488 278.42311 -3.414651 279.531676 -1.617542 C 280.640808 0.174549 280.904419 2.659045 280.313605 5.824776 C 279.72781 8.991073 278.129147 12.531044 275.51705 16.449708 C 272.77636 20.562245 269.707203 24.658067 266.309014 28.742192 C 262.916409 32.821866 259.342684 36.479608 255.588405 39.710402 C 251.834126 42.941195 248.064374 45.407894 244.274696 47.104914 C 240.490037 48.8025 236.831025 49.385978 233.306566 48.866519 C 229.782673 48.342041 226.564563 46.368008 223.662841 42.940534 C 220.7561 39.512494 218.323054 34.272661 216.363703 27.221036 C 214.930056 21.997349 213.461021 18.619641 211.956598 17.087909 C 210.45776 15.551725 208.642233 15.651913 206.521188 17.379566 C 204.399576 19.112238 201.721821 22.261147 198.492376 26.831878 C 195.257912 31.402043 191.197664 37.210648 186.301029 44.261579 C 184.208551 47.268119 181.906162 49.38699 179.392728 50.628228 C 176.879295 51.869465 174.335257 52.390643 171.755031 52.196213 C 169.174806 52.001783 166.728153 51.298937 164.40949 50.092128 C 162.091392 48.8803 160.070555 47.330987 158.337506 45.438038 C 156.609476 43.545655 155.301679 41.487207 154.423585 39.268845 C 153.540473 37.049916 153.295842 34.892831 153.689127 32.802606 C 154.208514 29.999829 155.075646 26.682297 156.283809 22.864499 C 157.491971 19.0467 158.95985 14.998993 160.687445 10.721378 C 162.420058 6.444328 164.296585 2.153015 166.32261 -2.157014 C 168.343617 -6.467609 170.416055 -10.513205 172.541055 -14.303839 C 174.660472 -18.09002 176.700386 -21.351522 178.661365 -24.093365 C 179.900061 -25.79347 181.50224 -27.066325 183.457867 -27.913062 C 185.419079 -28.764251 187.472775 -29.218753 189.630125 -29.285472 C 191.782457 -29.352757 193.824346 -29.071652 195.751904 -28.452761 C 197.674444 -27.834435 199.260217 -26.933903 200.500318 -25.762333 C 201.739854 -24.585745 202.391131 -23.15023 202.458603 -21.450204 Z M 307.637081 10.278509 C 311.097507 10.734841 313.984053 11.86339 316.302303 13.659703 C 318.620554 15.456016 320.496083 17.527669 321.933909 19.875227 C 323.37117 22.227804 324.384197 24.466466 324.968538 26.585629 C 325.557898 28.705357 325.788302 30.357688 325.655863 31.532017 C 325.198857 36.755936 323.826709 41.261684 321.545002 45.04481 C 319.257712 48.832388 316.353068 51.920132 312.826618 54.302459 C 309.300169 56.684786 305.466381 58.412407 301.319671 59.489776 C 297.172961 60.567144 292.992666 61.04101 288.783806 60.911939 C 284.569927 60.782302 280.673192 60.0938 277.082434 58.855337 C 274.858444 58.070873 272.786479 56.749581 270.86152 54.890894 C 268.937127 53.027189 267.418137 50.858523 266.305683 48.374861 C 265.197681 45.896783 264.690087 43.232301 264.791805 40.392585 C 264.888506 37.552303 265.81673 34.729565 267.581497 31.924935 C 269.212651 29.313612 271.108015 27.469025 273.26257 26.390607 C 275.417125 25.312188 277.604999 24.659361 279.821175 24.431559 C 282.042369 24.204323 284.035882 24.058139 285.796696 23.99244 C 287.557509 23.926741 288.881373 23.679622 289.762703 23.255537 C 290.644033 22.831452 290.823526 21.870806 290.301749 20.368578 C 290.042482 19.648142 289.077947 18.782095 287.41316 17.771005 C 285.748374 16.759916 283.823266 15.668644 281.633386 14.491606 C 279.448524 13.315133 277.372862 12.206882 275.417002 11.162965 C 273.456124 10.118483 272.086713 9.237269 271.303749 8.518759 C 268.430141 5.968616 266.506083 2.885189 265.522106 -0.737673 C 264.543147 -4.359969 264.43235 -8.19946 265.183565 -12.246674 C 265.934779 -16.293888 267.449371 -20.260092 269.737379 -24.144153 C 272.020368 -28.02878 274.960819 -31.524156 278.547564 -34.621373 C 282.139893 -37.723044 286.300522 -40.140578 291.033904 -41.868391 C 295.767851 -43.601222 300.9446 -44.303226 306.559132 -43.974966 C 313.350897 -43.585093 318.900795 -42.278151 323.209391 -40.059159 C 327.517987 -37.840167 330.764361 -35.080267 332.954097 -31.783913 C 335.138815 -28.488125 336.426958 -24.993594 336.819093 -21.305339 C 337.211227 -17.617083 336.835681 -14.106888 335.692456 -10.774752 C 334.549796 -7.447634 332.840233 -4.636779 330.554862 -2.353354 C 328.59305 -0.460355 326.144631 0.925438 323.209039 1.809043 C 320.268428 2.692082 317.251104 3.083648 314.14703 2.982609 C 311.047409 2.887155 308.242519 2.296377 305.72621 1.219748 C 303.21492 0.143684 301.398709 -1.372387 300.293199 -3.331786 C 298.922057 -2.485202 297.97349 -1.194539 297.453081 0.53575 C 296.927654 2.265474 297.288463 3.978252 298.529925 5.678538 C 299.050869 6.331922 300.029404 7.163971 301.465528 8.174684 C 302.901652 9.185397 304.956786 9.889829 307.637081 10.278509 Z M 387.452184 -82.168461 C 392.021493 -86.542343 396.36241 -89.386789 400.473801 -90.691764 C 404.590211 -91.996172 408.276392 -92.144588 411.541815 -91.130862 C 414.807238 -90.117136 417.497915 -88.243245 419.622748 -85.498021 C 421.74313 -82.75838 423.113719 -79.544244 423.734515 -75.855612 C 424.355312 -72.16698 424.091835 -68.298546 422.949102 -64.249746 C 421.806369 -60.200946 419.572509 -56.346355 416.243068 -52.691556 C 413.827104 -50.016273 411.131689 -46.981167 408.161844 -43.585671 C 405.191998 -40.190175 402.106992 -36.629786 398.90739 -32.90952 C 395.707789 -29.189255 392.540638 -25.531401 389.406503 -21.940976 C 386.277387 -18.349984 383.287543 -15.002485 380.447573 -11.902364 C 377.607604 -8.802243 375.076214 -6.139978 372.858988 -3.920021 C 372.268811 -2.156941 371.536418 -0.394653 370.656791 1.366277 C 369.771579 3.131659 368.876859 5.251733 367.961463 7.735402 C 369.071905 6.361348 370.540961 4.646564 372.368631 2.591049 C 374.196301 0.535534 376.267349 -1.650086 378.587359 -3.970262 C 380.906803 -6.28542 383.334315 -8.52232 385.884951 -10.679264 C 389.737336 -13.878664 393.146285 -16.030291 396.11795 -17.143615 C 399.089048 -18.251921 401.635048 -18.610242 403.75595 -18.21858 C 405.876852 -17.826918 407.691853 -16.931027 409.190352 -15.527022 C 410.693868 -14.122452 411.902615 -12.537667 412.817157 -10.777686 C 413.992059 -8.622414 415.098174 -6.352925 416.145538 -3.968085 C 417.188451 -1.588829 418.297961 0.650549 419.475202 2.740014 C 420.647425 4.828913 421.956957 6.511464 423.394327 7.781517 C 424.826112 9.056022 426.495954 9.706837 428.387664 9.7423 C 430.27994 9.772744 432.501622 8.910272 435.048825 7.14428 C 437.590444 5.382741 440.531539 2.512565 443.862639 -1.472398 C 445.167481 -3.037985 446.486815 -3.920906 447.825093 -4.115575 C 449.163371 -4.310244 450.338531 -4.004912 451.353893 -3.183957 C 452.364802 -2.368587 453.099583 -1.177771 453.558233 0.38849 C 454.011865 1.954184 454.045265 3.685943 453.653979 5.578183 C 452.674782 9.889378 451.287955 14.164766 449.492932 18.409365 C 447.697908 22.653965 445.57204 26.632547 443.124232 30.356281 C 440.676425 34.080015 438.001349 37.295296 435.093987 40.00156 C 432.191078 42.713407 429.137687 44.686593 425.938266 45.926701 C 422.738845 47.166809 419.493575 47.461515 416.19242 46.809687 C 412.896283 46.158425 409.633347 44.311478 406.402481 41.278881 C 403.167161 38.240701 400.049678 33.752098 397.045577 27.807489 C 396.200087 26.111201 395.121144 24.952724 393.813766 24.332623 C 392.511407 23.713088 390.828966 23.940096 388.770894 25.019231 C 386.712823 26.098366 384.102947 28.329946 380.939568 31.729027 C 377.771737 35.122524 373.838533 39.984896 369.134372 46.320596 C 367.375377 48.668467 365.252784 50.319711 362.772744 51.264857 C 360.287118 52.214456 357.663011 52.58938 354.884799 52.392951 C 352.111607 52.197088 349.45297 51.52624 346.903305 50.384861 C 344.359224 49.239029 342.173191 47.757485 340.34132 45.929626 C 337.731164 43.251643 335.709678 39.72523 334.271845 35.349821 C 332.834012 30.974412 332.35984 25.625147 332.850463 19.291988 C 333.341085 12.95883 335.12074 5.515712 338.18943 -3.037367 C 340.277822 -8.981955 342.791882 -15.005596 345.731607 -21.108288 C 348.666314 -27.211547 351.849607 -33.2207 355.280354 -39.125711 C 358.706649 -45.036306 362.264104 -50.667828 365.95272 -56.020277 C 369.641903 -61.377744 373.316409 -66.289621 376.971785 -70.761492 C 380.627162 -75.233364 384.120817 -79.03736 387.452184 -82.168461 Z M 535.3284 -0.788034 C 536.500723 -2.48546 537.888844 -3.482599 539.487178 -3.774998 C 541.090531 -4.066831 542.589289 -3.836815 543.994056 -3.088837 C 545.398257 -2.33584 546.424111 -1.112198 547.081653 0.583222 C 547.73361 2.283095 547.668376 4.303588 546.884819 6.654738 C 546.231855 8.61403 545.237295 11.078607 543.89612 14.047902 C 542.559398 17.022782 540.94183 20.189611 539.048433 23.548955 C 537.15447 26.913317 535.066484 30.240551 532.783342 33.540693 C 530.495748 36.835251 528.114461 39.78889 525.634464 42.401046 C 522.627677 45.538259 519.43007 47.708638 516.03606 48.916636 C 512.637031 50.124068 509.307579 50.399115 506.047137 49.746796 C 502.781677 49.093912 499.841247 47.496794 497.231431 44.95099 C 496.514839 44.2298 495.614148 43.203237 494.535506 41.86183 C 493.461316 40.526007 492.626657 39.364586 492.040432 38.388735 C 488.581232 43.284235 484.778844 46.941601 480.628818 49.355249 C 476.48381 51.769462 472.271974 53.108849 467.998893 53.368958 C 463.720228 53.633518 459.670674 52.94811 455.855252 51.3133 C 452.034244 49.682942 448.686973 47.231851 445.817325 43.970628 C 442.943223 40.703822 440.80367 36.737177 439.398663 32.070695 C 437.998675 27.404779 437.590084 22.195051 438.176777 16.452113 C 438.632276 12.142844 439.63049 7.798217 441.165835 3.422685 C 442.695594 -0.948395 444.445225 -5.060891 446.404691 -8.915934 C 448.363591 -12.765959 450.191106 -16.08191 451.886104 -18.853749 C 453.586687 -21.630041 454.857568 -23.570468 455.704898 -24.684502 C 457.014419 -26.381703 458.756475 -27.587959 460.946689 -28.306593 C 463.131884 -29.025792 465.517708 -29.315779 468.095254 -29.187721 C 470.672801 -29.059664 473.171637 -28.549144 475.588443 -27.671782 C 478.004684 -26.789402 480.124796 -25.579574 481.954364 -24.046749 C 483.778914 -22.514491 485.055355 -20.718778 485.773648 -18.660743 C 486.491942 -16.602709 486.393391 -14.331857 485.47856 -11.853206 C 483.585207 -6.826852 481.77411 -2.304538 480.045835 1.70872 C 478.311976 5.72643 476.826135 9.167314 475.587179 12.041408 C 474.084358 15.632847 473.268389 18.361517 473.139839 20.222399 C 473.00627 22.082715 473.544534 22.717723 474.754632 22.127423 C 475.964164 21.542142 477.708443 19.324752 479.993055 15.470801 C 481.689675 12.729639 483.538282 9.136539 485.528272 4.695387 C 487.517696 0.259255 489.593639 -4.898976 491.745499 -10.775419 C 492.466609 -12.798178 493.820769 -14.170157 495.812997 -14.89079 C 497.799641 -15.60697 500.020835 -15.834206 502.471562 -15.573064 C 504.917269 -15.312487 507.254722 -14.677862 509.473317 -13.665303 C 511.691912 -12.652743 513.437108 -11.363221 514.713925 -9.796171 C 515.985723 -8.229687 516.358268 -6.530832 515.837142 -4.704059 C 513.618389 3.523041 512.686892 9.349068 513.047104 12.779607 C 513.407881 16.205127 514.987695 18.014725 517.796017 18.21455 C 518.7747 18.279183 519.921029 17.803667 521.224402 16.791888 C 522.532793 15.780676 523.886311 14.459448 525.289976 12.82877 C 526.694207 11.193075 528.061195 9.482026 529.402109 7.68672 C 530.743024 5.891414 531.932025 4.226363 532.97915 2.692699 C 534.021823 1.15345 534.802856 -0.00363733 535.3284 -0.788034 Z M 550.015557 48.474556 C 548.578876 50.172662 546.602158 51.296548 544.089854 51.851799 C 541.57755 52.407049 538.900464 52.440565 536.058596 51.952346 C 533.217294 51.459109 530.574881 50.419081 528.128037 48.816641 C 525.675609 47.218653 523.799023 45.111305 522.492695 42.499049 C 521.191386 39.887359 520.863589 36.755251 521.514887 33.098272 C 522.037179 30.224671 522.92114 26.848048 524.157301 22.962255 C 525.398479 19.077027 526.901072 14.946836 528.665079 10.57168 C 530.428519 6.201543 532.338063 1.842801 534.393142 -2.499528 C 536.448222 -6.841856 538.553601 -10.909149 540.708147 -14.691368 C 542.863258 -18.478606 544.956113 -21.713809 546.980559 -24.387506 C 548.347848 -26.281484 549.867618 -27.634786 551.530399 -28.453561 C 553.198198 -29.271771 555.268837 -29.515986 557.752354 -29.185075 C 562.384996 -28.667694 565.649438 -27.735397 567.546812 -26.398218 C 569.438602 -25.056587 570.614861 -23.04855 571.070572 -20.374673 C 571.333011 -18.8712 571.590203 -17.907045 571.852751 -17.486096 C 572.114733 -17.060128 572.637449 -17.143482 573.420333 -17.73114 C 574.920634 -18.776615 576.878071 -20.044981 579.294341 -21.551293 C 581.710045 -23.052587 584.306339 -24.487773 587.083225 -25.856851 C 589.855658 -27.231514 592.599075 -28.258768 595.309024 -28.944198 C 598.018974 -29.629628 600.452417 -29.710951 602.604336 -29.188733 C 604.761273 -28.665948 606.407006 -27.260585 607.552136 -24.976531 C 608.692249 -22.693042 609.035065 -19.198395 608.581152 -14.497607 C 608.318613 -12.214756 608.34971 -10.778031 608.674442 -10.187434 C 609.00476 -9.60129 609.658107 -9.761393 610.635617 -10.677782 C 612.919215 -12.900418 614.945852 -14.872506 616.706622 -16.605215 C 618.471845 -18.332339 620.266047 -20.04603 622.094247 -21.745722 C 624.183219 -23.639628 626.548888 -25.238046 629.19684 -26.54543 C 631.839207 -27.848362 634.501461 -28.696724 637.173565 -29.091647 C 639.85514 -29.480419 642.332242 -29.317949 644.619925 -28.602538 C 646.902023 -27.882674 648.766381 -26.478066 650.202962 -24.389847 C 651.639542 -22.301628 652.389346 -19.396373 652.452372 -15.674081 C 652.581858 -8.62045 652.910191 -3.104668 653.431789 0.877716 C 653.953386 4.860101 654.985394 7.426173 656.518908 8.564763 C 658.051855 9.708372 660.370514 9.563281 663.470432 8.123905 C 666.574803 6.690113 670.736865 4.079612 675.95662 0.292402 C 679.417979 -2.188748 682.438507 -3.510019 685.01877 -3.67643 C 687.593448 -3.838389 689.519648 -3.072263 690.796805 -1.373034 C 692.068943 0.325629 692.459941 2.672021 691.968667 5.676179 C 691.48241 8.680903 689.931894 12.109411 687.317118 15.961702 C 686.210262 17.529288 684.656987 19.585255 682.66733 22.130735 C 680.677674 24.676214 678.420603 27.384664 675.911175 30.257782 C 673.396728 33.130333 670.830624 35.875083 668.219014 38.48256 C 662.604728 44.100656 657.236117 47.855831 652.11318 49.748086 C 646.985224 51.639775 642.401146 51.773328 638.352043 50.137575 C 634.302373 48.50684 631.137274 45.161475 628.851728 40.100911 C 626.566181 35.040348 625.458957 28.364352 625.52002 20.071792 C 625.584914 17.91912 625.551854 16.31954 625.42586 15.273618 C 625.294281 14.232148 624.837258 14.048464 624.053091 14.737624 C 623.269491 15.421765 621.932954 17.268388 620.039028 20.271909 C 618.731093 22.360628 617.178687 24.904596 615.386263 27.9094 C 613.588821 30.913638 611.646106 34.079373 609.55812 37.406607 C 607.469568 40.738859 605.250119 43.96995 602.899208 47.104897 C 601.135195 49.452201 598.867706 51.036281 596.092291 51.851551 C 593.316875 52.666821 590.427164 52.783086 587.423722 52.195328 C 584.420281 51.60757 581.678366 50.368274 579.198542 48.472422 C 576.718152 46.581588 574.825981 44.116719 573.516445 41.082267 C 572.212493 38.043363 571.919446 34.467929 572.637304 30.355965 C 573.029343 28.006401 573.551523 25.539373 574.203278 22.959901 C 574.854467 20.385447 575.478148 17.919701 576.06372 15.566552 C 576.653744 13.218987 577.076424 11.228641 577.336777 9.596081 C 577.597129 7.963521 577.550865 6.931673 577.191834 6.510007 C 576.833368 6.083323 576.048521 6.508124 574.842313 7.784978 C 573.631651 9.056247 571.855337 11.422493 569.503333 14.882586 C 568.065899 17.038017 566.532926 19.635001 564.899962 22.667953 C 563.266431 25.705923 561.62045 28.854301 559.956432 32.117538 C 558.291848 35.385794 556.60919 38.4538 554.912909 41.327141 C 553.21161 44.199916 551.580832 46.582577 550.015557 48.474556 Z M 678.790565 46.906962 C 675.463745 44.229472 673.095455 40.984134 671.691848 37.161476 C 670.287675 33.343837 669.666574 29.162185 669.832434 24.627122 C 669.993275 20.091493 670.844706 15.471113 672.376125 10.769869 C 673.912563 6.069191 676.000394 1.481522 678.644637 -2.992573 C 681.288315 -7.461649 684.344114 -11.574224 687.801998 -15.331431 C 691.264335 -19.083053 694.999521 -22.234682 699.017028 -24.780169 C 703.029517 -27.326221 707.224712 -29.058824 711.602047 -29.97296 C 715.974364 -30.887662 720.382266 -30.720897 724.821868 -29.483266 C 728.28422 -28.503237 731.451049 -26.885668 734.322921 -24.635579 C 737.194226 -22.380472 739.513914 -19.425225 741.276967 -15.770406 C 743.040019 -12.115586 743.954155 -7.738251 744.015488 -2.649003 C 744.150325 2.509523 744.688977 6.295619 745.630878 8.714306 C 746.578364 11.128541 747.835898 12.551111 749.404615 12.97198 C 750.972765 13.397868 752.733955 13.103507 754.693203 12.089462 C 756.651886 11.080435 758.64298 9.693889 760.666486 7.929824 C 762.689992 6.165758 764.649464 4.338565 766.540451 2.442661 C 768.43589 0.552341 770.100517 -1.048905 771.538784 -2.355493 C 772.710694 -3.463415 774.165491 -3.970213 775.892572 -3.872 C 777.624671 -3.77322 779.242139 -3.153724 780.744409 -2.008492 C 782.242227 -0.868845 783.258007 0.714506 783.776692 2.739865 C 784.300962 4.760771 783.940657 7.144408 782.701361 9.886324 C 781.592998 12.36856 780.024935 15.276691 777.997736 18.605698 C 775.975557 21.935271 773.726337 25.295144 771.244493 28.68977 C 769.151676 31.564132 766.673981 34.471322 763.801372 37.41021 C 760.929329 40.344079 757.80817 42.828019 754.449066 44.853127 C 751.085509 46.87265 747.609164 47.954468 744.016712 48.082961 C 741.473428 48.146814 738.730383 47.593505 735.788142 46.418017 C 732.850921 45.243094 730.224654 43.203668 727.904891 40.294154 C 725.58958 37.390224 724.007231 33.394939 723.158974 28.29826 C 722.110566 29.933426 720.887115 31.858873 719.483037 34.079054 C 718.078959 36.299235 716.513648 38.552056 714.782085 40.83695 C 713.05554 43.12241 711.162064 45.175586 709.105542 47.007081 C 707.044568 48.832991 704.843904 50.139996 702.494079 50.921946 C 698.770961 52.163981 694.741523 52.471896 690.399614 51.855163 C 686.058271 51.233412 682.188777 49.582339 678.790565 46.906962 Z M 704.451749 6.164102 C 702.885308 9.10291 701.740193 11.550507 701.025875 13.513044 C 700.307104 15.469997 700.059164 16.677041 700.287073 17.134742 C 700.520001 17.59301 701.235796 17.104515 702.445061 15.665372 C 703.653759 14.231247 705.397019 11.61732 707.68431 7.829742 C 710.032048 3.911759 711.504044 1.089358 712.090259 -0.638592 C 712.67704 -2.371561 712.643833 -3.203726 711.990636 -3.135088 C 711.338005 -3.071468 710.312083 -2.221527 708.908418 -0.59085 C 707.504753 1.039827 706.02087 3.291667 704.451749 6.164102 Z M 769.96744 46.908207 C 766.635601 44.230151 764.267877 40.979794 762.863704 37.162156 C 761.464549 33.345083 760.843449 29.16343 761.00429 24.627801 C 761.170716 20.08772 762.016563 15.471792 763.553 10.771114 C 765.084419 6.06987 767.177268 1.482767 769.821512 -2.991327 C 772.465189 -7.460403 775.51597 -11.573545 778.978873 -15.330185 C 782.436191 -19.082374 786.176395 -22.233437 790.188884 -24.779489 C 794.206391 -27.324976 798.401586 -29.057579 802.773903 -29.972281 C 807.151238 -30.886417 811.554122 -30.720217 815.993724 -29.482587 C 819.456076 -28.502558 822.622905 -26.884989 825.494777 -24.6349 C 828.366082 -22.379792 830.68577 -19.424546 832.448823 -15.769726 C 834.211875 -12.114907 835.126011 -7.737572 835.192362 -2.647758 C 835.322181 2.510202 835.860833 6.296299 836.807753 8.715552 C 837.755238 11.129786 839.00832 12.546772 840.576471 12.97266 C 842.144621 13.398548 843.905811 13.104186 845.86506 12.090141 C 847.823742 11.081115 849.814836 9.694569 851.838342 7.930503 C 853.861848 6.166437 855.82132 4.339245 857.717325 2.443906 C 859.607746 0.55302 861.272373 -1.048226 862.71064 -2.354814 C 863.887568 -3.46217 865.337347 -3.969534 867.069446 -3.870754 C 868.796527 -3.772541 870.413995 -3.153045 871.916831 -2.012832 C 873.419102 -0.8676 874.429863 0.715186 874.953567 2.74111 C 875.472818 4.76145 875.117532 7.145654 873.873217 9.887003 C 872.764854 12.369239 871.197357 15.272351 869.175177 18.601924 C 867.147413 21.93595 864.898193 25.295823 862.416349 28.69045 C 860.32855 31.565377 857.845837 34.472001 854.973794 37.40587 C 852.101185 40.344758 848.985045 42.829265 845.621488 44.848788 C 842.257365 46.873329 838.781586 47.950129 835.188568 48.083641 C 832.645284 48.147493 829.902239 47.594185 826.965017 46.419262 C 824.027795 45.244339 821.39651 43.204347 819.081766 40.295399 C 816.761436 37.390904 815.179653 33.3906 814.33083 28.298939 C 813.287441 29.934672 812.06399 31.860119 810.659912 34.0803 C 809.255834 36.30048 807.68607 38.547717 805.959526 40.833177 C 804.227396 43.123089 802.33392 45.176265 800.277398 47.00776 C 798.221442 48.834236 796.01576 50.140676 793.665935 50.922626 C 789.942817 52.16466 785.913379 52.472575 781.572036 51.850824 C 777.230127 51.234091 773.360633 49.583018 769.96744 46.908207 Z M 795.623605 6.164781 C 794.057164 9.103589 792.917068 11.551752 792.197731 13.513723 C 791.47896 15.470676 791.236039 16.678286 791.463948 17.135988 C 791.691857 17.593689 792.408218 17.100176 793.616917 15.666051 C 794.825615 14.231926 796.573893 11.618565 798.856166 7.830422 C 801.208923 3.913004 802.6759 1.090037 803.262115 -0.637913 C 803.853915 -2.370316 803.820707 -3.202481 803.168076 -3.138861 C 802.514879 -3.070222 801.483939 -2.220847 800.080274 -0.59017 C 798.676609 1.040507 797.192726 3.292346 795.623605 6.164781 Z M 896.395154 -21.451822 C 896.464365 -18.775792 896.706353 -17.045921 897.131155 -16.261074 C 897.555956 -15.476228 898.190476 -15.379256 899.039166 -15.964574 C 899.888423 -16.554911 901.033958 -17.564161 902.466866 -19.003494 C 903.646134 -20.176656 904.820308 -21.304653 905.993841 -22.381898 C 907.167374 -23.459144 908.37864 -24.420322 909.618168 -25.271584 C 911.705481 -26.835325 914.006214 -27.948081 916.524253 -28.599249 C 919.037273 -29.250983 921.453963 -29.318948 923.768172 -28.793674 C 926.087965 -28.272852 927.995036 -27.066721 929.499422 -25.174148 C 930.998224 -23.277123 931.751649 -20.539176 931.752982 -16.945817 C 931.88262 -9.307701 932.337437 -3.381233 933.123015 0.829134 C 933.903576 5.038935 935.278389 7.719903 937.233532 8.860303 C 939.193693 10.001269 941.901191 9.788219 945.366063 8.222285 C 948.825917 6.655785 953.262034 3.913557 958.684452 -0.00326675 C 962.340778 -2.680969 965.440055 -4.069594 967.986735 -4.163557 C 970.533981 -4.26254 972.359661 -3.416268 973.473245 -1.618593 C 974.581811 0.178516 974.84097 2.657427 974.255175 5.823725 C 973.669379 8.990022 972.065131 12.534445 969.453601 16.448091 C 966.71291 20.560627 963.643188 24.661468 960.250583 28.741141 C 956.85296 32.820248 953.279235 36.477991 949.524956 39.708784 C 945.770677 42.939578 942.000925 45.406277 938.216265 47.103862 C 934.426588 48.800882 930.772028 49.389945 927.248135 48.865467 C 923.718657 48.345442 920.506132 46.366956 917.599392 42.938916 C 914.692651 39.510876 912.264623 34.27161 910.304707 27.225003 C 908.866041 22.00075 907.397005 18.623042 905.898167 17.086858 C 904.394311 15.550108 902.583803 15.650861 900.462757 17.378515 C 898.341145 19.111187 895.66339 22.260096 892.428927 26.830261 C 889.199481 31.400992 885.133649 37.214049 880.237014 44.26498 C 878.150121 47.267068 875.847165 49.390957 873.334297 50.627176 C 870.820864 51.868414 868.271242 52.394044 865.696601 52.195162 C 863.116375 52.000732 860.664704 51.29732 858.351059 50.091077 C 856.032395 48.884267 854.007105 47.32937 852.279075 45.436986 C 850.546027 43.544037 849.243248 41.486155 848.360136 39.267227 C 847.477023 37.048299 847.231827 34.896232 847.625112 32.806007 C 848.145064 29.998212 849.011631 26.685698 850.22036 22.862881 C 851.428522 19.045083 852.896401 14.997376 854.629014 10.720326 C 856.356608 6.442711 858.233135 2.151398 860.259161 -2.158631 C 862.285186 -6.468661 864.357624 -10.514256 866.47704 -14.300438 C 868.601475 -18.086053 870.641956 -21.352574 872.597916 -24.094982 C 873.84163 -25.794522 875.438791 -27.067943 877.399436 -27.914113 C 879.355629 -28.765868 881.414344 -29.219804 883.566676 -29.287089 C 885.723461 -29.34879 887.760896 -29.07327 889.688455 -28.454378 C 891.615447 -27.830468 893.196768 -26.935521 894.436303 -25.758932 C 895.676404 -24.587362 896.332134 -23.146263 896.395154 -21.451822 Z M 896.395154 -21.451822 " stroke="#418ce3" stroke-width="30.086849" stroke-opacity="1" stroke-miterlimit="4"/><path stroke-linecap="butt" transform="matrix(0.768594, -0.086681, 0.086681, 0.768594, 13.62191, 345.863938)" fill="none" stroke-linejoin="miter" d="M 326.784205 182.858612 C 326.000908 184.035773 324.938351 185.796402 323.600985 188.146082 C 322.26362 190.495763 321.105939 192.784391 320.124056 195.001363 C 319.731032 195.917599 319.767937 196.536723 320.224168 196.862622 C 320.6804 197.188521 321.202851 196.927255 321.791522 196.078825 C 322.574253 194.906682 323.636283 193.466181 324.970896 191.771811 C 326.311094 190.072988 327.731738 188.291756 329.232263 186.433133 C 330.733354 184.569492 332.185166 182.827351 333.589397 181.191655 C 334.993062 179.560978 336.187045 178.257334 337.166894 177.275139 C 340.10497 174.206412 342.82748 172.328051 345.343896 171.646206 C 347.85586 170.958776 350.07532 171.107437 352.002842 172.08717 C 353.930363 173.066903 355.529647 174.568674 356.800692 176.592483 C 358.071737 178.616292 358.987149 180.864275 359.545796 183.346468 C 360.099423 185.828094 360.245496 188.228181 359.984014 190.546729 C 359.722531 192.865276 358.973725 194.7731 357.73201 196.274654 C 356.55844 197.712741 354.923133 199.459599 352.836123 201.51636 C 350.744095 203.572555 348.460798 205.612262 345.981214 207.634914 C 343.496611 209.656999 341.064909 211.390276 338.682221 212.824141 C 336.298967 214.263024 334.261912 215.110742 332.560454 215.371181 C 337.58832 218.377736 343.090331 218.622152 349.065921 216.109449 C 355.037058 213.591162 361.255977 207.929445 367.718793 199.113695 C 368.893796 197.482641 370.171434 196.518784 371.541106 196.226008 C 372.910778 195.933233 374.167517 196.146119 375.311322 196.864666 C 376.455126 197.583213 377.30103 198.689996 377.858504 200.191167 C 378.410958 201.691772 378.463375 203.3901 378.005717 205.285018 C 377.28612 208.420978 376.145498 211.865219 374.578834 215.617175 C 373.011603 219.374149 371.100775 223.158443 368.845784 226.975075 C 366.595245 230.797292 364.099667 234.403827 361.353465 237.799133 C 358.612282 241.195006 355.722995 244.101518 352.68617 246.513653 C 349.653797 248.931371 346.568483 250.64684 343.435811 251.655607 C 340.297555 252.668826 337.215593 252.687174 334.180455 251.704502 C 331.14475 250.726848 328.255484 248.540867 325.512656 245.14656 C 322.770394 241.747234 320.257581 236.854169 317.970332 230.456761 C 317.7099 230.783153 317.00969 231.629168 315.864118 232.99926 C 314.723565 234.369917 313.385782 235.957201 311.846882 237.750508 C 310.313001 239.544381 308.765196 241.326519 307.199582 243.08632 C 305.628382 244.850572 304.277883 246.370352 303.133028 247.64396 C 301.988739 248.91255 301.255248 249.648083 300.928103 249.844975 C 298.842224 251.215749 296.555602 251.887933 294.074388 251.852057 C 291.592608 251.8212 289.126222 251.248269 286.679681 250.13885 C 284.233141 249.02943 281.996923 247.542226 279.970462 245.682256 C 277.94902 243.822853 276.346112 241.81244 275.170645 239.662187 C 274.259008 237.831381 273.900197 235.920618 274.094214 233.929895 C 274.29325 231.939739 274.762303 229.898718 275.516429 227.80853 C 276.264971 225.722794 276.934273 223.663698 277.523204 221.641279 C 278.569946 218.308427 280.036202 214.230043 281.928123 209.396656 C 283.824495 204.568854 286.074689 199.262558 288.688176 193.483918 C 291.301663 187.705278 294.155848 181.730161 297.255184 175.564152 C 300.360105 169.39369 303.657918 163.270394 307.148056 157.199282 C 310.643213 151.128736 314.231005 145.363413 317.920338 139.914481 C 321.610237 134.460531 325.313156 129.567105 329.035245 125.224733 C 332.757334 120.882361 336.429505 117.388191 340.056776 114.742789 C 343.678463 112.101839 347.153297 110.582769 350.48573 110.191165 C 354.074822 109.731941 357.403145 110.142881 360.471829 111.413947 C 363.539947 112.690032 366.135196 114.598902 368.257011 117.145575 C 370.378825 119.692249 371.816239 122.629311 372.569251 125.956761 C 373.321697 129.289231 373.174814 132.799803 372.128601 136.488478 C 371.082389 140.177154 368.928635 143.817157 365.662321 147.407922 C 361.614369 151.845685 357.290135 156.074407 352.690185 160.08907 C 348.085217 164.103167 343.545715 167.987424 339.076698 171.742408 C 334.602662 175.496826 330.505164 179.202227 326.784205 182.858612 Z M 415.903129 117.828046 C 420.472439 113.454164 424.812789 110.614736 428.929199 109.310328 C 433.04059 108.005354 436.726771 107.856938 439.992194 108.870664 C 443.258184 109.879371 445.953312 111.758846 448.073694 114.498487 C 450.193509 117.243146 451.564098 120.457282 452.184895 124.145914 C 452.805692 127.834546 452.547233 131.703545 451.4045 135.752346 C 450.261767 139.801146 448.023454 143.650153 444.693447 147.30997 C 442.277483 149.985253 439.587087 153.020925 436.617242 156.416421 C 433.642378 159.811351 430.557937 163.366722 427.35777 167.092005 C 424.163187 170.812836 420.996036 174.470691 417.861901 178.061116 C 414.727766 181.651542 411.738488 184.994023 408.897953 188.099162 C 406.057983 191.199283 403.526593 193.861548 401.309368 196.081505 C 400.719757 197.839566 399.986798 199.606873 399.10717 201.367803 C 398.222524 203.128167 397.327238 205.253258 396.412408 207.731909 C 397.522284 206.362874 398.99134 204.64809 400.81901 202.592575 C 402.64668 200.53706 404.723313 198.346988 407.037738 196.031264 C 409.357749 193.711087 411.790279 191.474753 414.33533 189.322261 C 418.187715 186.122862 421.597231 183.966217 424.568329 182.857911 C 427.539428 181.749605 430.085428 181.391284 432.20633 181.782946 C 434.327231 182.174608 436.142233 183.070498 437.640731 184.474503 C 439.144248 185.879074 440.35356 187.458841 441.267536 189.22384 C 442.442438 191.379111 443.553571 193.649167 444.596484 196.028422 C 445.63883 198.412696 446.753925 200.647623 447.926148 202.736522 C 449.103389 204.825986 450.407902 206.507972 451.844706 207.783043 C 453.28151 209.058114 454.946333 209.708363 456.838609 209.738807 C 458.730319 209.77427 460.952568 208.906779 463.499205 207.145806 C 466.045842 205.384833 468.982484 202.509072 472.313018 198.529128 C 473.618426 196.958522 474.942213 196.081186 476.281057 195.881498 C 477.619335 195.686829 478.793929 195.99718 479.804838 196.81255 C 480.815748 197.627921 481.549962 198.823755 482.008613 200.390015 C 482.462245 201.95571 482.495644 203.687469 482.104359 205.579709 C 481.125728 209.885885 479.738335 214.166292 477.943311 218.410891 C 476.148853 222.650472 474.027438 226.634639 471.57963 230.358373 C 469.12737 234.076522 466.452295 237.291804 463.549385 240.003652 C 460.641457 242.714933 457.588066 244.688119 454.388645 245.928227 C 451.189224 247.168335 447.943955 247.463041 444.647818 246.811779 C 441.347228 246.154933 438.083727 244.313004 434.853426 241.275389 C 431.617541 238.242227 428.500057 233.753624 425.500975 227.809581 C 424.650466 226.112727 423.571523 224.95425 422.269164 224.334715 C 420.961786 223.714614 419.279345 223.941622 417.221274 225.020757 C 415.168787 226.095439 412.553326 228.331472 409.390514 231.725534 C 406.222117 235.12405 402.288913 239.986422 397.590336 246.317669 C 395.825757 248.669993 393.703164 250.321237 391.223123 251.266383 C 388.743082 252.211529 386.113956 252.585888 383.340763 252.390024 C 380.562552 252.193595 377.903349 251.527766 375.359269 250.381934 C 372.809604 249.240555 370.624137 247.753993 368.797284 245.926699 C 366.181543 243.253169 364.160058 239.726756 362.722224 235.351347 C 361.28941 230.976503 360.815804 225.62222 361.301408 219.288496 C 361.79203 212.955338 363.571686 205.512219 366.640375 196.95914 C 368.728202 191.019571 371.242261 184.99593 374.181987 178.893237 C 377.122278 172.785526 380.299987 166.780826 383.7313 160.870796 C 387.157028 154.96522 390.714483 149.333698 394.403666 143.976231 C 398.092282 138.623782 401.766788 133.711905 405.422165 129.240034 C 409.077541 124.768162 412.571196 120.964166 415.903129 117.828046 Z M 472.112325 246.90553 C 468.77992 244.232493 466.417215 240.982702 465.013042 237.165063 C 463.609434 233.342406 462.987768 229.165772 463.149175 224.625124 C 463.315035 220.090061 464.161448 215.469116 465.697885 210.768438 C 467.234323 206.06776 469.322154 201.48009 471.965831 197.011014 C 474.610075 192.53692 477.660855 188.423778 481.123192 184.672156 C 484.581076 180.91495 488.321281 177.763886 492.333769 175.217834 C 496.351277 172.672347 500.545906 170.944763 504.918222 170.030061 C 509.295557 169.115925 513.704026 169.277672 518.143062 170.520321 C 521.600396 171.499784 524.76779 173.112334 527.639096 175.367442 C 530.515986 177.618097 532.830656 180.572777 534.593708 184.227597 C 536.356194 187.887435 537.270896 192.259752 537.336682 197.354584 C 537.4665 202.512544 538.005152 206.29864 538.952638 208.712875 C 539.900123 211.127109 541.157658 212.549679 542.72079 212.975001 C 544.289506 213.395871 546.050696 213.101509 548.009379 212.092483 C 549.968627 211.078438 551.959722 209.691892 553.988246 207.928392 C 556.011185 206.169345 557.966205 204.336568 559.861644 202.446248 C 561.757649 200.550909 563.42171 198.954682 564.854959 197.647528 C 566.032454 196.535153 567.482232 196.027789 569.214331 196.126569 C 570.946431 196.225348 572.55888 196.844279 574.061151 197.98951 C 575.563987 199.129723 576.574748 200.712509 577.098452 202.738433 C 577.622156 204.764358 577.261851 207.147995 576.022555 209.889911 C 574.909739 212.366562 573.341676 215.274693 571.319496 218.604266 C 569.297316 221.933839 567.042512 225.298165 564.560668 228.692791 C 562.473435 231.5627 559.990722 234.469325 557.118113 237.408212 C 554.245504 240.3471 551.12993 242.826588 547.765807 244.851129 C 544.406702 246.876237 540.925906 247.952471 537.338472 248.08153 C 534.789603 248.149835 532.047124 247.591508 529.109902 246.416585 C 526.172681 245.241663 523.546414 243.202236 521.226085 240.297741 C 518.910774 237.393811 517.323972 233.392941 516.475149 228.301281 C 515.432326 229.931995 514.208875 231.857442 512.804797 234.077623 C 511.400719 236.297804 509.835408 238.550624 508.103845 240.835518 C 506.372282 243.120413 504.478239 245.178607 502.422283 247.005083 C 500.366328 248.831559 498.160645 250.137999 495.810255 250.924967 C 492.092721 252.162549 488.057698 252.474917 483.716355 251.853166 C 479.375012 251.231414 475.504952 249.58536 472.112325 246.90553 Z M 497.772943 206.167689 C 496.206502 209.106497 495.061387 211.554094 494.342616 213.511047 C 493.623845 215.467999 493.380358 216.680628 493.608833 217.133311 C 493.836742 217.591012 494.557556 217.103083 495.761236 215.668393 C 496.970501 214.229249 498.718778 211.615889 501.000485 207.832763 C 503.353242 203.915346 504.820219 201.092379 505.412019 199.359976 C 505.998234 197.632026 505.965026 196.799861 505.312395 196.863481 C 504.659764 196.927101 503.628824 197.776476 502.225159 199.407153 C 500.820928 201.042848 499.337045 203.294688 497.772943 206.167689 Z M 637.0321 209.202891 C 632.78609 214.360337 628.561357 218.112377 624.347298 220.462897 C 620.138257 222.813983 616.300354 223.992249 612.839741 223.988223 C 609.378562 223.989215 606.605518 223.025937 604.515023 221.10284 C 602.425095 219.174725 601.334148 216.500359 601.238295 213.06914 C 601.136857 209.642374 602.393732 205.708093 605.008356 201.271317 C 604.549105 200.746867 603.731543 201.056167 602.555671 202.199219 C 601.384818 203.342837 599.654236 205.709159 597.368944 209.298751 C 595.606291 212.174772 593.82481 215.307868 592.028953 218.703624 C 590.233097 222.09938 588.46954 225.524191 586.742735 228.98364 C 585.010346 232.447542 583.361383 235.712476 581.795848 238.778445 C 580.229747 241.849431 578.792126 244.457169 577.486871 246.61226 C 576.178936 248.700978 574.451559 250.137595 572.294701 250.920979 C 570.142862 251.704928 567.82292 251.951521 565.340461 251.656306 C 562.863019 251.361657 560.463797 250.643831 558.142795 249.502828 C 555.82681 248.362391 553.785182 246.907298 552.022363 245.143131 C 550.258977 243.383984 549.021288 241.424924 548.303711 239.270406 C 547.581116 237.115322 547.649971 234.92752 548.500241 232.70587 C 549.151206 230.944563 550.097695 228.545718 551.339706 225.509333 C 552.5767 222.472383 553.998357 219.059837 555.599095 215.276148 C 557.19538 211.486874 558.848151 207.602325 560.542353 203.620801 C 562.241573 199.639843 563.922682 195.819477 565.58568 192.159703 C 567.25313 188.505514 568.737538 185.257597 570.043923 182.416518 C 571.350308 179.57544 572.395583 177.472346 573.175294 176.101652 C 574.219777 174.140774 575.643705 172.736005 577.436476 171.891231 C 579.234832 171.042004 581.126163 170.630179 583.119375 170.666925 C 585.108134 170.698086 587.021089 171.040884 588.848202 171.694189 C 590.675315 172.347493 592.177546 173.177616 593.354331 174.189575 C 594.526097 175.200969 595.178543 176.265605 595.312801 177.373448 C 595.374835 177.63456 595.326387 177.928954 595.162438 178.256062 C 594.998489 178.583171 594.85318 179.10551 594.721494 179.822515 C 594.396088 180.99541 594.38062 181.583216 594.675089 181.585932 C 594.970123 181.583629 595.358698 181.337759 595.850849 180.849454 C 596.337981 180.360583 596.683162 180.048831 596.875789 179.918085 C 600.729607 176.525718 604.05743 174.192143 606.869295 172.918492 C 609.67614 171.644274 612.040228 171.006238 613.966011 171.009967 C 615.89236 171.008678 617.508242 171.236656 618.813657 171.693901 C 621.361019 172.540245 623.138591 173.813089 624.15139 175.512998 C 625.164189 177.212908 625.768981 179.105672 625.965766 181.191291 C 626.161984 183.281929 626.224968 185.337212 626.159168 187.362723 C 626.093368 189.388235 626.209177 191.200441 626.501576 192.798775 C 626.798993 194.397675 627.566148 195.571813 628.802475 196.326206 C 630.044386 197.076147 632.068199 197.157002 634.873916 196.568772 C 636.179743 196.436513 637.305964 196.995525 638.25371 198.23577 C 639.201456 199.476015 639.807642 200.860704 640.066685 202.394288 C 640.325727 203.927872 640.131293 205.156198 639.479495 206.068661 C 639.024096 206.591605 638.599374 207.112927 638.204764 207.637644 C 637.815737 208.157909 637.421127 208.682627 637.0321 209.202891 Z M 663.471142 256.604221 C 658.181083 258.040548 653.137983 258.188403 648.337389 257.042201 C 643.541248 255.901584 639.313438 253.732361 635.659546 250.530081 C 632.000069 247.332253 629.22592 243.314369 627.330949 238.4859 C 625.441563 233.652979 624.718655 228.301074 625.178413 222.421845 C 625.371741 217.462964 626.355463 212.43567 628.113958 207.343284 C 629.877472 202.251464 632.309843 197.402794 635.411071 192.797274 C 638.511733 188.196772 642.138585 184.113023 646.285475 180.555497 C 650.427348 176.997406 655.01402 174.272157 660.040474 172.379186 C 665.071946 170.48678 670.359819 169.700745 675.908543 170.026665 C 678.129701 170.16027 680.298298 170.714864 682.419353 171.691011 C 684.54486 172.672743 686.420613 173.931248 688.052196 175.462074 C 689.683213 176.997918 690.926938 178.678129 691.772769 180.506596 C 693.601968 184.295933 694.334869 187.981962 693.975361 191.575283 C 693.616418 195.163586 692.525566 198.527041 690.698352 201.660061 C 688.865554 204.797535 686.551998 207.60126 683.74093 210.084596 C 680.935446 212.56348 677.965596 214.607075 674.832511 216.205345 C 671.699426 217.803615 668.67935 218.850492 665.772849 219.340956 C 662.866913 219.826401 660.367474 219.681741 658.280682 218.897504 C 658.41268 221.377321 659.158782 223.143717 660.530156 224.187786 C 661.901531 225.231856 663.733699 225.524885 666.016623 225.065741 C 668.304001 224.612182 670.894524 223.633755 673.803248 222.132158 C 676.706954 220.629995 679.694804 218.832381 682.761213 216.74377 C 685.83264 214.655725 688.849581 212.46497 691.820939 210.182676 C 694.792864 207.895362 697.519788 205.707477 700.001712 203.619018 C 702.483635 201.53056 704.537252 199.769891 706.168146 198.332557 C 707.999025 196.699237 709.696218 195.980907 711.264745 196.178133 C 712.828253 196.374792 714.136612 197.076321 715.179784 198.281587 C 716.222391 199.491872 716.896082 200.863845 717.185801 202.395806 C 717.480539 203.928334 717.299387 205.219145 716.647929 206.263788 C 714.627183 209.400394 712.127227 212.955612 709.156969 216.940612 C 706.187276 220.920593 702.90621 225.00268 699.314337 229.181856 C 695.722465 233.361032 691.918984 237.343544 687.903896 241.129392 C 683.888808 244.91524 679.810439 248.180636 675.663773 250.925014 C 671.517672 253.664373 667.4516 255.558926 663.471142 256.604221 Z M 663.471142 256.604221 " stroke="#418ce3" stroke-width="30.086849" stroke-opacity="1" stroke-miterlimit="4"/><g fill="#c9fd06" fill-opacity="1"><g transform="translate(44.273533, 382.882329)"><g><path d="M 31.109375 -19.671875 L 29.921875 -14.4375 C 29.617188 -10.882812 28.734375 -7.96875 27.265625 -5.6875 C 25.796875 -3.414062 23.953125 -1.722656 21.734375 -0.609375 C 19.523438 0.503906 17.148438 1.085938 14.609375 1.140625 C 12.078125 1.191406 9.566406 0.773438 7.078125 -0.109375 C 4.585938 -1.003906 2.332031 -2.300781 0.3125 -4 C -1.707031 -5.695312 -3.285156 -7.765625 -4.421875 -10.203125 C -5.566406 -12.640625 -6.082031 -15.378906 -5.96875 -18.421875 C -5.851562 -21.460938 -4.898438 -24.738281 -3.109375 -28.25 C -2.234375 -29.96875 -0.710938 -32.359375 1.453125 -35.421875 C 3.628906 -38.484375 6.222656 -41.96875 9.234375 -45.875 C 7.640625 -45.53125 6.050781 -45.179688 4.46875 -44.828125 C 2.882812 -44.472656 1.300781 -44.128906 -0.28125 -43.796875 C -1.625 -43.492188 -2.769531 -43.742188 -3.71875 -44.546875 C -4.675781 -45.359375 -5.390625 -46.488281 -5.859375 -47.9375 C -6.328125 -49.394531 -6.488281 -50.929688 -6.34375 -52.546875 C -6.195312 -54.160156 -5.695312 -55.609375 -4.84375 -56.890625 C -4 -58.179688 -2.738281 -59.046875 -1.0625 -59.484375 C 2.875 -60.597656 7.035156 -61.640625 11.421875 -62.609375 C 15.816406 -63.585938 20.300781 -64.515625 24.875 -65.390625 C 28.625 -69.972656 32.457031 -74.566406 36.375 -79.171875 C 40.300781 -83.785156 44.132812 -88.222656 47.875 -92.484375 C 51.613281 -96.753906 55.101562 -100.65625 58.34375 -104.1875 C 61.582031 -107.726562 64.429688 -110.71875 66.890625 -113.15625 C 69.359375 -115.59375 71.253906 -117.296875 72.578125 -118.265625 C 76.085938 -120.847656 79.742188 -122.335938 83.546875 -122.734375 C 87.347656 -123.140625 90.785156 -122.757812 93.859375 -121.59375 C 95.828125 -122.664062 97.71875 -123.015625 99.53125 -122.640625 C 101.34375 -122.265625 102.960938 -121.378906 104.390625 -119.984375 C 105.816406 -118.597656 106.925781 -116.972656 107.71875 -115.109375 C 108.519531 -113.242188 108.875 -111.363281 108.78125 -109.46875 C 108.695312 -107.570312 108.015625 -105.945312 106.734375 -104.59375 C 105.378906 -103.113281 103.707031 -100.796875 101.71875 -97.640625 C 99.738281 -94.492188 97.648438 -90.835938 95.453125 -86.671875 C 93.253906 -82.515625 91.09375 -78.140625 88.96875 -73.546875 C 89.019531 -73.554688 89.070312 -73.5625 89.125 -73.5625 C 89.175781 -73.570312 89.226562 -73.578125 89.28125 -73.578125 C 90.6875 -73.691406 91.863281 -73.140625 92.8125 -71.921875 C 93.769531 -70.703125 94.398438 -69.179688 94.703125 -67.359375 C 95.015625 -65.535156 94.972656 -63.6875 94.578125 -61.8125 C 94.179688 -59.945312 93.34375 -58.359375 92.0625 -57.046875 C 90.78125 -55.734375 89.035156 -55 86.828125 -54.84375 C 85.859375 -54.84375 84.914062 -54.835938 84 -54.828125 C 83.082031 -54.828125 82.144531 -54.800781 81.1875 -54.75 C 79.757812 -50.726562 78.644531 -47.003906 77.84375 -43.578125 C 77.039062 -40.160156 76.707031 -37.363281 76.84375 -35.1875 C 77.03125 -33.53125 77.429688 -32.226562 78.046875 -31.28125 C 78.660156 -30.34375 79.546875 -30.023438 80.703125 -30.328125 C 81.867188 -30.628906 83.300781 -31.769531 85 -33.75 C 86.21875 -35.164062 87.554688 -36.835938 89.015625 -38.765625 C 90.472656 -40.703125 91.914062 -42.679688 93.34375 -44.703125 C 94.769531 -46.722656 96.035156 -48.539062 97.140625 -50.15625 C 98.242188 -51.78125 99.066406 -52.984375 99.609375 -53.765625 C 100.128906 -54.492188 100.882812 -54.960938 101.875 -55.171875 C 102.875 -55.378906 103.910156 -55.300781 104.984375 -54.9375 C 106.066406 -54.582031 107.03125 -53.941406 107.875 -53.015625 C 108.71875 -52.097656 109.265625 -50.851562 109.515625 -49.28125 C 109.773438 -47.707031 109.519531 -45.8125 108.75 -43.59375 C 108.050781 -41.582031 107.160156 -39.21875 106.078125 -36.5 C 104.992188 -33.789062 103.707031 -30.976562 102.21875 -28.0625 C 100.738281 -25.15625 99.097656 -22.351562 97.296875 -19.65625 C 95.492188 -16.96875 93.523438 -14.597656 91.390625 -12.546875 C 89.253906 -10.503906 86.945312 -8.988281 84.46875 -8 C 81.988281 -7.007812 79.351562 -6.765625 76.5625 -7.265625 C 73.707031 -7.804688 70.851562 -8.851562 68 -10.40625 C 65.15625 -11.96875 62.5625 -14.007812 60.21875 -16.53125 C 57.875 -19.0625 55.960938 -22.050781 54.484375 -25.5 C 53.003906 -28.945312 52.148438 -32.804688 51.921875 -37.078125 C 51.691406 -41.347656 52.3125 -46 53.78125 -51.03125 C 53.84375 -51.34375 53.929688 -51.660156 54.046875 -51.984375 C 54.171875 -52.304688 54.265625 -52.625 54.328125 -52.9375 C 52.316406 -52.757812 50.429688 -52.554688 48.671875 -52.328125 C 46.921875 -52.109375 45.847656 -51.953125 45.453125 -51.859375 C 41.492188 -45.003906 38.300781 -38.820312 35.875 -33.3125 C 33.445312 -27.800781 31.859375 -23.253906 31.109375 -19.671875 Z M 73.296875 -97.6875 C 70.867188 -94.414062 68.15625 -90.410156 65.15625 -85.671875 C 62.164062 -80.941406 59.097656 -75.828125 55.953125 -70.328125 C 56.898438 -70.492188 57.820312 -70.625 58.71875 -70.71875 C 59.625 -70.820312 60.53125 -70.953125 61.4375 -71.109375 C 63.3125 -75.703125 65.253906 -80.21875 67.265625 -84.65625 C 69.273438 -89.101562 71.285156 -93.445312 73.296875 -97.6875 Z M 73.296875 -97.6875 "/></g></g></g><g fill="#c9fd06" fill-opacity="1"><g transform="translate(146.940624, 371.303677)"><g><path d="M 20.4375 -59.46875 C 20.71875 -57.414062 21.054688 -56.109375 21.453125 -55.546875 C 21.847656 -54.984375 22.34375 -54.960938 22.9375 -55.484375 C 23.539062 -56.015625 24.332031 -56.894531 25.3125 -58.125 C 26.113281 -59.125 26.914062 -60.085938 27.71875 -61.015625 C 28.53125 -61.941406 29.375 -62.789062 30.25 -63.5625 C 31.726562 -64.945312 33.40625 -66 35.28125 -66.71875 C 37.15625 -67.445312 39.003906 -67.707031 40.828125 -67.5 C 42.648438 -67.300781 44.222656 -66.539062 45.546875 -65.21875 C 46.867188 -63.894531 47.6875 -61.847656 48 -59.078125 C 48.757812 -53.222656 49.617188 -48.707031 50.578125 -45.53125 C 51.546875 -42.363281 52.832031 -40.425781 54.4375 -39.71875 C 56.039062 -39.007812 58.101562 -39.40625 60.625 -40.90625 C 63.15625 -42.414062 66.335938 -44.910156 70.171875 -48.390625 C 72.742188 -50.765625 75.003906 -52.097656 76.953125 -52.390625 C 78.910156 -52.691406 80.390625 -52.195312 81.390625 -50.90625 C 82.398438 -49.625 82.816406 -47.738281 82.640625 -45.25 C 82.460938 -42.769531 81.539062 -39.914062 79.875 -36.6875 C 78.125 -33.28125 76.117188 -29.859375 73.859375 -26.421875 C 71.609375 -22.992188 69.175781 -19.875 66.5625 -17.0625 C 63.957031 -14.257812 61.273438 -12.039062 58.515625 -10.40625 C 55.753906 -8.769531 52.992188 -8 50.234375 -8.09375 C 47.472656 -8.195312 44.828125 -9.441406 42.296875 -11.828125 C 39.773438 -14.210938 37.457031 -18.03125 35.34375 -23.28125 C 33.78125 -27.164062 32.359375 -29.628906 31.078125 -30.671875 C 29.796875 -31.722656 28.410156 -31.488281 26.921875 -29.96875 C 25.441406 -28.457031 23.65625 -25.804688 21.5625 -22.015625 C 19.476562 -18.234375 16.859375 -13.421875 13.703125 -7.578125 C 12.359375 -5.078125 10.773438 -3.242188 8.953125 -2.078125 C 7.128906 -0.910156 5.21875 -0.289062 3.21875 -0.21875 C 1.21875 -0.144531 -0.722656 -0.46875 -2.609375 -1.1875 C -4.503906 -1.914062 -6.195312 -2.929688 -7.6875 -4.234375 C -9.175781 -5.535156 -10.351562 -7.003906 -11.21875 -8.640625 C -12.09375 -10.273438 -12.46875 -11.910156 -12.34375 -13.546875 C -12.195312 -15.753906 -11.820312 -18.375 -11.21875 -21.40625 C -10.613281 -24.445312 -9.832031 -27.6875 -8.875 -31.125 C -7.925781 -34.5625 -6.859375 -38.023438 -5.671875 -41.515625 C -4.492188 -45.003906 -3.253906 -48.296875 -1.953125 -51.390625 C -0.648438 -54.484375 0.640625 -57.164062 1.921875 -59.4375 C 2.722656 -60.851562 3.835938 -61.972656 5.265625 -62.796875 C 6.703125 -63.617188 8.242188 -64.148438 9.890625 -64.390625 C 11.546875 -64.628906 13.140625 -64.59375 14.671875 -64.28125 C 16.203125 -63.96875 17.492188 -63.410156 18.546875 -62.609375 C 19.597656 -61.816406 20.226562 -60.769531 20.4375 -59.46875 Z M 20.4375 -59.46875 "/></g></g></g><g fill="#c9fd06" fill-opacity="1"><g transform="translate(222.887174, 362.738532)"><g><path d="M 28.078125 -35.640625 C 30.773438 -35.585938 33.085938 -34.972656 35.015625 -33.796875 C 36.953125 -32.617188 38.578125 -31.1875 39.890625 -29.5 C 41.203125 -27.820312 42.175781 -26.191406 42.8125 -24.609375 C 43.445312 -23.035156 43.765625 -21.789062 43.765625 -20.875 C 43.867188 -16.8125 43.207031 -13.226562 41.78125 -10.125 C 40.351562 -7.019531 38.382812 -4.394531 35.875 -2.25 C 33.375 -0.113281 30.578125 1.546875 27.484375 2.734375 C 24.398438 3.921875 21.226562 4.644531 17.96875 4.90625 C 14.71875 5.164062 11.660156 4.976562 8.796875 4.34375 C 7.023438 3.925781 5.320312 3.085938 3.6875 1.828125 C 2.050781 0.566406 0.695312 -0.96875 -0.375 -2.78125 C -1.445312 -4.59375 -2.070312 -6.59375 -2.25 -8.78125 C -2.425781 -10.96875 -1.953125 -13.21875 -0.828125 -15.53125 C 0.191406 -17.6875 1.484375 -19.269531 3.046875 -20.28125 C 4.609375 -21.300781 6.234375 -21.992188 7.921875 -22.359375 C 9.609375 -22.722656 11.125 -23.003906 12.46875 -23.203125 C 13.820312 -23.398438 14.816406 -23.703125 15.453125 -24.109375 C 16.097656 -24.515625 16.160156 -25.273438 15.640625 -26.390625 C 15.378906 -26.910156 14.5625 -27.488281 13.1875 -28.125 C 11.8125 -28.769531 10.226562 -29.445312 8.4375 -30.15625 C 6.65625 -30.863281 4.96875 -31.535156 3.375 -32.171875 C 1.789062 -32.804688 0.660156 -33.363281 -0.015625 -33.84375 C -2.429688 -35.550781 -4.171875 -37.753906 -5.234375 -40.453125 C -6.304688 -43.160156 -6.726562 -46.097656 -6.5 -49.265625 C -6.28125 -52.441406 -5.457031 -55.625 -4.03125 -58.8125 C -2.613281 -62 -0.660156 -64.9375 1.828125 -67.625 C 4.328125 -70.320312 7.316406 -72.539062 10.796875 -74.28125 C 14.285156 -76.019531 18.203125 -77.007812 22.546875 -77.25 C 27.796875 -77.53125 32.171875 -77.003906 35.671875 -75.671875 C 39.179688 -74.335938 41.921875 -72.5 43.890625 -70.15625 C 45.859375 -67.8125 47.148438 -65.238281 47.765625 -62.4375 C 48.390625 -59.644531 48.40625 -56.914062 47.8125 -54.25 C 47.226562 -51.59375 46.15625 -49.289062 44.59375 -47.34375 C 43.25 -45.71875 41.488281 -44.4375 39.3125 -43.5 C 37.132812 -42.570312 34.847656 -42.007812 32.453125 -41.8125 C 30.054688 -41.625 27.84375 -41.832031 25.8125 -42.4375 C 23.789062 -43.050781 22.265625 -44.0625 21.234375 -45.46875 C 20.265625 -44.695312 19.65625 -43.625 19.40625 -42.25 C 19.15625 -40.875 19.578125 -39.585938 20.671875 -38.390625 C 21.128906 -37.941406 21.953125 -37.382812 23.140625 -36.71875 C 24.328125 -36.0625 25.972656 -35.703125 28.078125 -35.640625 Z M 28.078125 -35.640625 "/></g></g></g><g fill="#c9fd06" fill-opacity="1"><g transform="translate(278.962675, 356.414415)"><g><path d="M 25.328125 -107.296875 C 28.460938 -111.054688 31.554688 -113.613281 34.609375 -114.96875 C 37.660156 -116.332031 40.476562 -116.765625 43.0625 -116.265625 C 45.65625 -115.773438 47.890625 -114.566406 49.765625 -112.640625 C 51.640625 -110.710938 52.972656 -108.359375 53.765625 -105.578125 C 54.554688 -102.796875 54.6875 -99.800781 54.15625 -96.59375 C 53.632812 -93.382812 52.253906 -90.234375 50.015625 -87.140625 C 48.378906 -84.867188 46.566406 -82.300781 44.578125 -79.4375 C 42.597656 -76.570312 40.539062 -73.566406 38.40625 -70.421875 C 36.269531 -67.285156 34.15625 -64.203125 32.0625 -61.171875 C 29.96875 -58.148438 27.960938 -55.320312 26.046875 -52.6875 C 24.128906 -50.050781 22.414062 -47.785156 20.90625 -45.890625 C 20.59375 -44.472656 20.175781 -43.050781 19.65625 -41.625 C 19.144531 -40.195312 18.640625 -38.488281 18.140625 -36.5 C 18.878906 -37.65625 19.863281 -39.101562 21.09375 -40.84375 C 22.320312 -42.582031 23.722656 -44.441406 25.296875 -46.421875 C 26.878906 -48.398438 28.550781 -50.328125 30.3125 -52.203125 C 33.007812 -54.992188 35.445312 -56.945312 37.625 -58.0625 C 39.8125 -59.175781 41.738281 -59.671875 43.40625 -59.546875 C 45.070312 -59.429688 46.539062 -58.898438 47.8125 -57.953125 C 49.09375 -57.015625 50.160156 -55.898438 51.015625 -54.609375 C 52.109375 -53.054688 53.160156 -51.410156 54.171875 -49.671875 C 55.179688 -47.941406 56.222656 -46.320312 57.296875 -44.8125 C 58.378906 -43.300781 59.523438 -42.117188 60.734375 -41.265625 C 61.953125 -40.410156 63.289062 -40.054688 64.75 -40.203125 C 66.21875 -40.347656 67.851562 -41.203125 69.65625 -42.765625 C 71.46875 -44.335938 73.472656 -46.800781 75.671875 -50.15625 C 76.546875 -51.476562 77.488281 -52.269531 78.5 -52.53125 C 79.519531 -52.800781 80.453125 -52.664062 81.296875 -52.125 C 82.148438 -51.582031 82.816406 -50.726562 83.296875 -49.5625 C 83.785156 -48.40625 83.957031 -47.082031 83.8125 -45.59375 C 83.4375 -42.195312 82.738281 -38.789062 81.71875 -35.375 C 80.707031 -31.957031 79.425781 -28.707031 77.875 -25.625 C 76.320312 -22.550781 74.539062 -19.847656 72.53125 -17.515625 C 70.53125 -15.191406 68.351562 -13.410156 66 -12.171875 C 63.65625 -10.941406 61.191406 -10.429688 58.609375 -10.640625 C 56.023438 -10.859375 53.359375 -11.992188 50.609375 -14.046875 C 47.859375 -16.097656 45.070312 -19.273438 42.25 -23.578125 C 41.445312 -24.828125 40.515625 -25.628906 39.453125 -25.984375 C 38.398438 -26.347656 37.128906 -26.023438 35.640625 -25.015625 C 34.148438 -24.015625 32.335938 -22.066406 30.203125 -19.171875 C 28.066406 -16.285156 25.46875 -12.207031 22.40625 -6.9375 C 21.25 -4.976562 19.753906 -3.523438 17.921875 -2.578125 C 16.097656 -1.640625 14.109375 -1.125 11.953125 -1.03125 C 9.804688 -0.945312 7.707031 -1.234375 5.65625 -1.890625 C 3.601562 -2.554688 1.789062 -3.507812 0.21875 -4.75 C -2.007812 -6.582031 -3.867188 -9.117188 -5.359375 -12.359375 C -6.847656 -15.597656 -7.675781 -19.671875 -7.84375 -24.578125 C -8.007812 -29.492188 -7.285156 -35.375 -5.671875 -42.21875 C -4.585938 -46.957031 -3.175781 -51.796875 -1.4375 -56.734375 C 0.289062 -61.679688 2.210938 -66.578125 4.328125 -71.421875 C 6.441406 -76.265625 8.6875 -80.898438 11.0625 -85.328125 C 13.4375 -89.765625 15.835938 -93.859375 18.265625 -97.609375 C 20.691406 -101.367188 23.046875 -104.597656 25.328125 -107.296875 Z M 25.328125 -107.296875 "/></g></g></g><g fill="#c9fd06" fill-opacity="1"><g transform="translate(359.425373, 347.339944)"><g><path d="M 65.578125 -48.484375 C 66.335938 -49.890625 67.316406 -50.773438 68.515625 -51.140625 C 69.710938 -51.503906 70.882812 -51.457031 72.03125 -51 C 73.1875 -50.539062 74.085938 -49.6875 74.734375 -48.4375 C 75.390625 -47.195312 75.515625 -45.644531 75.109375 -43.78125 C 74.773438 -42.207031 74.21875 -40.222656 73.4375 -37.828125 C 72.664062 -35.429688 71.695312 -32.859375 70.53125 -30.109375 C 69.375 -27.359375 68.0625 -24.613281 66.59375 -21.875 C 65.125 -19.144531 63.554688 -16.671875 61.890625 -14.453125 C 59.835938 -11.773438 57.554688 -9.828125 55.046875 -8.609375 C 52.546875 -7.390625 50.007812 -6.890625 47.4375 -7.109375 C 44.875 -7.328125 42.484375 -8.300781 40.265625 -10.03125 C 39.648438 -10.507812 38.867188 -11.21875 37.921875 -12.15625 C 36.984375 -13.09375 36.242188 -13.914062 35.703125 -14.625 C 33.472656 -10.550781 30.867188 -7.40625 27.890625 -5.1875 C 24.910156 -2.976562 21.789062 -1.585938 18.53125 -1.015625 C 15.269531 -0.453125 12.097656 -0.628906 9.015625 -1.546875 C 5.941406 -2.472656 3.15625 -4.066406 0.65625 -6.328125 C -1.832031 -8.585938 -3.816406 -11.445312 -5.296875 -14.90625 C -6.785156 -18.375 -7.550781 -22.34375 -7.59375 -26.8125 C -7.613281 -30.164062 -7.222656 -33.59375 -6.421875 -37.09375 C -5.628906 -40.59375 -4.644531 -43.90625 -3.46875 -47.03125 C -2.300781 -50.15625 -1.179688 -52.859375 -0.109375 -55.140625 C 0.953125 -57.429688 1.757812 -59.035156 2.3125 -59.953125 C 3.164062 -61.367188 4.40625 -62.445312 6.03125 -63.1875 C 7.65625 -63.9375 9.460938 -64.367188 11.453125 -64.484375 C 13.441406 -64.609375 15.398438 -64.4375 17.328125 -63.96875 C 19.253906 -63.507812 20.988281 -62.765625 22.53125 -61.734375 C 24.070312 -60.710938 25.207031 -59.441406 25.9375 -57.921875 C 26.675781 -56.398438 26.800781 -54.648438 26.3125 -52.671875 C 25.289062 -48.640625 24.285156 -45.003906 23.296875 -41.765625 C 22.316406 -38.523438 21.472656 -35.753906 20.765625 -33.453125 C 19.929688 -30.546875 19.539062 -28.375 19.59375 -26.9375 C 19.65625 -25.5 20.125 -25.054688 21 -25.609375 C 21.882812 -26.160156 23.035156 -28.019531 24.453125 -31.1875 C 25.523438 -33.4375 26.632812 -36.351562 27.78125 -39.9375 C 28.925781 -43.53125 30.070312 -47.679688 31.21875 -52.390625 C 31.59375 -54.003906 32.515625 -55.175781 33.984375 -55.90625 C 35.453125 -56.632812 37.140625 -57 39.046875 -57 C 40.953125 -57.007812 42.800781 -56.722656 44.59375 -56.140625 C 46.382812 -55.554688 47.832031 -54.71875 48.9375 -53.625 C 50.050781 -52.53125 50.492188 -51.253906 50.265625 -49.796875 C 49.273438 -43.285156 49.0625 -38.726562 49.625 -36.125 C 50.195312 -33.519531 51.578125 -32.265625 53.765625 -32.359375 C 54.515625 -32.390625 55.34375 -32.851562 56.25 -33.75 C 57.164062 -34.644531 58.09375 -35.773438 59.03125 -37.140625 C 59.976562 -38.515625 60.890625 -39.953125 61.765625 -41.453125 C 62.640625 -42.953125 63.410156 -44.335938 64.078125 -45.609375 C 64.753906 -46.878906 65.253906 -47.835938 65.578125 -48.484375 Z M 65.578125 -48.484375 "/></g></g></g><g fill="#c9fd06" fill-opacity="1"><g transform="translate(429.5762, 339.428432)"><g><path d="M 10.96875 -3.984375 C 10.03125 -2.554688 8.613281 -1.519531 6.71875 -0.875 C 4.832031 -0.226562 2.773438 0.03125 0.546875 -0.09375 C -1.671875 -0.226562 -3.789062 -0.800781 -5.8125 -1.8125 C -7.832031 -2.832031 -9.453125 -4.289062 -10.671875 -6.1875 C -11.898438 -8.082031 -12.429688 -10.460938 -12.265625 -13.328125 C -12.109375 -15.585938 -11.71875 -18.257812 -11.09375 -21.34375 C -10.476562 -24.4375 -9.679688 -27.742188 -8.703125 -31.265625 C -7.734375 -34.785156 -6.644531 -38.300781 -5.4375 -41.8125 C -4.226562 -45.320312 -2.960938 -48.625 -1.640625 -51.71875 C -0.316406 -54.820312 1.003906 -57.492188 2.328125 -59.734375 C 3.222656 -61.296875 4.273438 -62.460938 5.484375 -63.234375 C 6.691406 -64.015625 8.265625 -64.382812 10.203125 -64.34375 C 13.804688 -64.34375 16.394531 -63.910156 17.96875 -63.046875 C 19.539062 -62.191406 20.617188 -60.75 21.203125 -58.71875 C 21.535156 -57.582031 21.816406 -56.863281 22.046875 -56.5625 C 22.285156 -56.269531 22.679688 -56.378906 23.234375 -56.890625 C 24.296875 -57.828125 25.691406 -58.972656 27.421875 -60.328125 C 29.148438 -61.691406 31.019531 -63.019531 33.03125 -64.3125 C 35.050781 -65.613281 37.070312 -66.644531 39.09375 -67.40625 C 41.113281 -68.164062 42.972656 -68.4375 44.671875 -68.21875 C 46.378906 -68.007812 47.769531 -67.078125 48.84375 -65.421875 C 49.914062 -63.765625 50.476562 -61.109375 50.53125 -57.453125 C 50.53125 -55.671875 50.679688 -54.570312 50.984375 -54.15625 C 51.296875 -53.738281 51.785156 -53.921875 52.453125 -54.703125 C 54.015625 -56.609375 55.398438 -58.300781 56.609375 -59.78125 C 57.816406 -61.269531 59.046875 -62.742188 60.296875 -64.203125 C 61.742188 -65.835938 63.421875 -67.269531 65.328125 -68.5 C 67.242188 -69.738281 69.21875 -70.625 71.25 -71.15625 C 73.28125 -71.6875 75.203125 -71.773438 77.015625 -71.421875 C 78.835938 -71.066406 80.390625 -70.144531 81.671875 -68.65625 C 82.960938 -67.175781 83.789062 -65.015625 84.15625 -62.171875 C 84.863281 -56.753906 85.59375 -52.539062 86.34375 -49.53125 C 87.101562 -46.519531 88.117188 -44.640625 89.390625 -43.890625 C 90.671875 -43.140625 92.441406 -43.453125 94.703125 -44.828125 C 96.960938 -46.210938 99.929688 -48.582031 103.609375 -51.9375 C 106.066406 -54.144531 108.273438 -55.421875 110.234375 -55.765625 C 112.203125 -56.117188 113.75 -55.695312 114.875 -54.5 C 116 -53.300781 116.5 -51.523438 116.375 -49.171875 C 116.257812 -46.828125 115.367188 -44.0625 113.703125 -40.875 C 112.984375 -39.570312 111.96875 -37.859375 110.65625 -35.734375 C 109.34375 -33.609375 107.84375 -31.332031 106.15625 -28.90625 C 104.476562 -26.476562 102.753906 -24.144531 100.984375 -21.90625 C 97.148438 -17.101562 93.34375 -13.75 89.5625 -11.84375 C 85.789062 -9.945312 82.28125 -9.453125 79.03125 -10.359375 C 75.78125 -11.265625 73.054688 -13.5625 70.859375 -17.25 C 68.660156 -20.945312 67.226562 -25.976562 66.5625 -32.34375 C 66.425781 -34.007812 66.265625 -35.238281 66.078125 -36.03125 C 65.890625 -36.832031 65.519531 -36.9375 64.96875 -36.34375 C 64.425781 -35.75 63.5625 -34.210938 62.375 -31.734375 C 61.539062 -30.015625 60.5625 -27.921875 59.4375 -25.453125 C 58.320312 -22.992188 57.109375 -20.390625 55.796875 -17.640625 C 54.484375 -14.898438 53.054688 -12.222656 51.515625 -9.609375 C 50.359375 -7.660156 48.75 -6.25 46.6875 -5.375 C 44.625 -4.507812 42.410156 -4.171875 40.046875 -4.359375 C 37.691406 -4.554688 35.476562 -5.273438 33.40625 -6.515625 C 31.34375 -7.753906 29.675781 -9.484375 28.40625 -11.703125 C 27.144531 -13.921875 26.609375 -16.640625 26.796875 -19.859375 C 26.890625 -21.703125 27.078125 -23.644531 27.359375 -25.6875 C 27.640625 -27.726562 27.898438 -29.675781 28.140625 -31.53125 C 28.390625 -33.394531 28.546875 -34.960938 28.609375 -36.234375 C 28.671875 -37.503906 28.546875 -38.285156 28.234375 -38.578125 C 27.921875 -38.878906 27.351562 -38.488281 26.53125 -37.40625 C 25.71875 -36.320312 24.554688 -34.347656 23.046875 -31.484375 C 22.128906 -29.703125 21.175781 -27.570312 20.1875 -25.09375 C 19.207031 -22.625 18.21875 -20.0625 17.21875 -17.40625 C 16.21875 -14.757812 15.191406 -12.257812 14.140625 -9.90625 C 13.085938 -7.550781 12.03125 -5.578125 10.96875 -3.984375 Z M 10.96875 -3.984375 "/></g></g></g><g fill="#c9fd06" fill-opacity="1"><g transform="translate(540.146549, 326.958462)"><g><path d="M -0.734375 -3.875 C -3.535156 -5.644531 -5.640625 -7.9375 -7.046875 -10.75 C -8.453125 -13.570312 -9.289062 -16.726562 -9.5625 -20.21875 C -9.832031 -23.71875 -9.582031 -27.34375 -8.8125 -31.09375 C -8.039062 -34.84375 -6.828125 -38.550781 -5.171875 -42.21875 C -3.523438 -45.882812 -1.535156 -49.3125 0.796875 -52.5 C 3.128906 -55.6875 5.726562 -58.429688 8.59375 -60.734375 C 11.457031 -63.035156 14.53125 -64.726562 17.8125 -65.8125 C 21.101562 -66.894531 24.503906 -67.15625 28.015625 -66.59375 C 30.753906 -66.132812 33.328125 -65.160156 35.734375 -63.671875 C 38.140625 -62.191406 40.179688 -60.125 41.859375 -57.46875 C 43.535156 -54.8125 44.613281 -51.53125 45.09375 -47.625 C 45.644531 -43.664062 46.390625 -40.800781 47.328125 -39.03125 C 48.265625 -37.257812 49.347656 -36.273438 50.578125 -36.078125 C 51.816406 -35.890625 53.144531 -36.269531 54.5625 -37.21875 C 55.988281 -38.164062 57.40625 -39.40625 58.8125 -40.9375 C 60.21875 -42.46875 61.5625 -44.039062 62.84375 -45.65625 C 64.132812 -47.28125 65.273438 -48.65625 66.265625 -49.78125 C 67.078125 -50.738281 68.148438 -51.253906 69.484375 -51.328125 C 70.828125 -51.410156 72.125 -51.078125 73.375 -50.328125 C 74.632812 -49.578125 75.550781 -48.445312 76.125 -46.9375 C 76.707031 -45.425781 76.632812 -43.5625 75.90625 -41.34375 C 75.269531 -39.332031 74.316406 -36.957031 73.046875 -34.21875 C 71.773438 -31.488281 70.335938 -28.71875 68.734375 -25.90625 C 67.378906 -23.507812 65.722656 -21.054688 63.765625 -18.546875 C 61.816406 -16.035156 59.632812 -13.859375 57.21875 -12.015625 C 54.8125 -10.179688 52.234375 -9.054688 49.484375 -8.640625 C 47.535156 -8.359375 45.378906 -8.546875 43.015625 -9.203125 C 40.660156 -9.859375 38.46875 -11.195312 36.4375 -13.21875 C 34.40625 -15.25 32.84375 -18.1875 31.75 -22.03125 C 31.082031 -20.675781 30.304688 -19.082031 29.421875 -17.25 C 28.535156 -15.425781 27.523438 -13.5625 26.390625 -11.65625 C 25.265625 -9.757812 23.988281 -8.019531 22.5625 -6.4375 C 21.132812 -4.851562 19.554688 -3.65625 17.828125 -2.84375 C 15.066406 -1.5625 11.992188 -0.972656 8.609375 -1.078125 C 5.222656 -1.179688 2.109375 -2.113281 -0.734375 -3.875 Z M 15.453125 -37.421875 C 14.492188 -35.023438 13.828125 -33.039062 13.453125 -31.46875 C 13.078125 -29.90625 12.992188 -28.957031 13.203125 -28.625 C 13.410156 -28.289062 13.914062 -28.726562 14.71875 -29.9375 C 15.53125 -31.144531 16.648438 -33.304688 18.078125 -36.421875 C 19.535156 -39.628906 20.414062 -41.921875 20.71875 -43.296875 C 21.03125 -44.679688 20.9375 -45.320312 20.4375 -45.21875 C 19.945312 -45.125 19.226562 -44.382812 18.28125 -43 C 17.34375 -41.613281 16.398438 -39.753906 15.453125 -37.421875 Z M 15.453125 -37.421875 "/></g></g></g><g fill="#c9fd06" fill-opacity="1"><g transform="translate(610.222131, 319.055436)"><g><path d="M -0.734375 -3.875 C -3.535156 -5.644531 -5.640625 -7.9375 -7.046875 -10.75 C -8.453125 -13.570312 -9.289062 -16.726562 -9.5625 -20.21875 C -9.832031 -23.71875 -9.582031 -27.34375 -8.8125 -31.09375 C -8.039062 -34.84375 -6.828125 -38.550781 -5.171875 -42.21875 C -3.523438 -45.882812 -1.535156 -49.3125 0.796875 -52.5 C 3.128906 -55.6875 5.726562 -58.429688 8.59375 -60.734375 C 11.457031 -63.035156 14.53125 -64.726562 17.8125 -65.8125 C 21.101562 -66.894531 24.503906 -67.15625 28.015625 -66.59375 C 30.753906 -66.132812 33.328125 -65.160156 35.734375 -63.671875 C 38.140625 -62.191406 40.179688 -60.125 41.859375 -57.46875 C 43.535156 -54.8125 44.613281 -51.53125 45.09375 -47.625 C 45.644531 -43.664062 46.390625 -40.800781 47.328125 -39.03125 C 48.265625 -37.257812 49.347656 -36.273438 50.578125 -36.078125 C 51.816406 -35.890625 53.144531 -36.269531 54.5625 -37.21875 C 55.988281 -38.164062 57.40625 -39.40625 58.8125 -40.9375 C 60.21875 -42.46875 61.5625 -44.039062 62.84375 -45.65625 C 64.132812 -47.28125 65.273438 -48.65625 66.265625 -49.78125 C 67.078125 -50.738281 68.148438 -51.253906 69.484375 -51.328125 C 70.828125 -51.410156 72.125 -51.078125 73.375 -50.328125 C 74.632812 -49.578125 75.550781 -48.445312 76.125 -46.9375 C 76.707031 -45.425781 76.632812 -43.5625 75.90625 -41.34375 C 75.269531 -39.332031 74.316406 -36.957031 73.046875 -34.21875 C 71.773438 -31.488281 70.335938 -28.71875 68.734375 -25.90625 C 67.378906 -23.507812 65.722656 -21.054688 63.765625 -18.546875 C 61.816406 -16.035156 59.632812 -13.859375 57.21875 -12.015625 C 54.8125 -10.179688 52.234375 -9.054688 49.484375 -8.640625 C 47.535156 -8.359375 45.378906 -8.546875 43.015625 -9.203125 C 40.660156 -9.859375 38.46875 -11.195312 36.4375 -13.21875 C 34.40625 -15.25 32.84375 -18.1875 31.75 -22.03125 C 31.082031 -20.675781 30.304688 -19.082031 29.421875 -17.25 C 28.535156 -15.425781 27.523438 -13.5625 26.390625 -11.65625 C 25.265625 -9.757812 23.988281 -8.019531 22.5625 -6.4375 C 21.132812 -4.851562 19.554688 -3.65625 17.828125 -2.84375 C 15.066406 -1.5625 11.992188 -0.972656 8.609375 -1.078125 C 5.222656 -1.179688 2.109375 -2.113281 -0.734375 -3.875 Z M 15.453125 -37.421875 C 14.492188 -35.023438 13.828125 -33.039062 13.453125 -31.46875 C 13.078125 -29.90625 12.992188 -28.957031 13.203125 -28.625 C 13.410156 -28.289062 13.914062 -28.726562 14.71875 -29.9375 C 15.53125 -31.144531 16.648438 -33.304688 18.078125 -36.421875 C 19.535156 -39.628906 20.414062 -41.921875 20.71875 -43.296875 C 21.03125 -44.679688 20.9375 -45.320312 20.4375 -45.21875 C 19.945312 -45.125 19.226562 -44.382812 18.28125 -43 C 17.34375 -41.613281 16.398438 -39.753906 15.453125 -37.421875 Z M 15.453125 -37.421875 "/></g></g></g><g fill="#c9fd06" fill-opacity="1"><g transform="translate(680.297713, 311.15241)"><g><path d="M 20.4375 -59.46875 C 20.71875 -57.414062 21.054688 -56.109375 21.453125 -55.546875 C 21.847656 -54.984375 22.34375 -54.960938 22.9375 -55.484375 C 23.539062 -56.015625 24.332031 -56.894531 25.3125 -58.125 C 26.113281 -59.125 26.914062 -60.085938 27.71875 -61.015625 C 28.53125 -61.941406 29.375 -62.789062 30.25 -63.5625 C 31.726562 -64.945312 33.40625 -66 35.28125 -66.71875 C 37.15625 -67.445312 39.003906 -67.707031 40.828125 -67.5 C 42.648438 -67.300781 44.222656 -66.539062 45.546875 -65.21875 C 46.867188 -63.894531 47.6875 -61.847656 48 -59.078125 C 48.757812 -53.222656 49.617188 -48.707031 50.578125 -45.53125 C 51.546875 -42.363281 52.832031 -40.425781 54.4375 -39.71875 C 56.039062 -39.007812 58.101562 -39.40625 60.625 -40.90625 C 63.15625 -42.414062 66.335938 -44.910156 70.171875 -48.390625 C 72.742188 -50.765625 75.003906 -52.097656 76.953125 -52.390625 C 78.910156 -52.691406 80.390625 -52.195312 81.390625 -50.90625 C 82.398438 -49.625 82.816406 -47.738281 82.640625 -45.25 C 82.460938 -42.769531 81.539062 -39.914062 79.875 -36.6875 C 78.125 -33.28125 76.117188 -29.859375 73.859375 -26.421875 C 71.609375 -22.992188 69.175781 -19.875 66.5625 -17.0625 C 63.957031 -14.257812 61.273438 -12.039062 58.515625 -10.40625 C 55.753906 -8.769531 52.992188 -8 50.234375 -8.09375 C 47.472656 -8.195312 44.828125 -9.441406 42.296875 -11.828125 C 39.773438 -14.210938 37.457031 -18.03125 35.34375 -23.28125 C 33.78125 -27.164062 32.359375 -29.628906 31.078125 -30.671875 C 29.796875 -31.722656 28.410156 -31.488281 26.921875 -29.96875 C 25.441406 -28.457031 23.65625 -25.804688 21.5625 -22.015625 C 19.476562 -18.234375 16.859375 -13.421875 13.703125 -7.578125 C 12.359375 -5.078125 10.773438 -3.242188 8.953125 -2.078125 C 7.128906 -0.910156 5.21875 -0.289062 3.21875 -0.21875 C 1.21875 -0.144531 -0.722656 -0.46875 -2.609375 -1.1875 C -4.503906 -1.914062 -6.195312 -2.929688 -7.6875 -4.234375 C -9.175781 -5.535156 -10.351562 -7.003906 -11.21875 -8.640625 C -12.09375 -10.273438 -12.46875 -11.910156 -12.34375 -13.546875 C -12.195312 -15.753906 -11.820312 -18.375 -11.21875 -21.40625 C -10.613281 -24.445312 -9.832031 -27.6875 -8.875 -31.125 C -7.925781 -34.5625 -6.859375 -38.023438 -5.671875 -41.515625 C -4.492188 -45.003906 -3.253906 -48.296875 -1.953125 -51.390625 C -0.648438 -54.484375 0.640625 -57.164062 1.921875 -59.4375 C 2.722656 -60.851562 3.835938 -61.972656 5.265625 -62.796875 C 6.703125 -63.617188 8.242188 -64.148438 9.890625 -64.390625 C 11.546875 -64.628906 13.140625 -64.59375 14.671875 -64.28125 C 16.203125 -63.96875 17.492188 -63.410156 18.546875 -62.609375 C 19.597656 -61.816406 20.226562 -60.769531 20.4375 -59.46875 Z M 20.4375 -59.46875 "/></g></g></g><g fill="#c9fd06" fill-opacity="1"><g transform="translate(256.220183, 514.653274)"><g><path d="M 24.421875 -56.578125 C 23.910156 -55.609375 23.242188 -54.160156 22.421875 -52.234375 C 21.597656 -50.304688 20.910156 -48.453125 20.359375 -46.671875 C 20.128906 -45.929688 20.203125 -45.453125 20.578125 -45.234375 C 20.960938 -45.023438 21.34375 -45.273438 21.71875 -45.984375 C 22.226562 -46.953125 22.921875 -48.144531 23.796875 -49.5625 C 24.679688 -50.988281 25.617188 -52.484375 26.609375 -54.046875 C 27.597656 -55.609375 28.5625 -57.070312 29.5 -58.4375 C 30.445312 -59.8125 31.25 -60.921875 31.90625 -61.765625 C 33.90625 -64.378906 35.84375 -66.054688 37.71875 -66.796875 C 39.59375 -67.546875 41.3125 -67.625 42.875 -67.03125 C 44.4375 -66.445312 45.789062 -65.429688 46.9375 -63.984375 C 48.09375 -62.546875 48.992188 -60.894531 49.640625 -59.03125 C 50.285156 -57.175781 50.601562 -55.347656 50.59375 -53.546875 C 50.59375 -51.742188 50.1875 -50.210938 49.375 -48.953125 C 48.59375 -47.734375 47.488281 -46.242188 46.0625 -44.484375 C 44.632812 -42.734375 43.054688 -40.96875 41.328125 -39.1875 C 39.597656 -37.414062 37.878906 -35.875 36.171875 -34.5625 C 34.460938 -33.257812 32.96875 -32.4375 31.6875 -32.09375 C 35.8125 -30.207031 40.054688 -30.488281 44.421875 -32.9375 C 48.796875 -35.394531 53.085938 -40.296875 57.296875 -47.640625 C 58.046875 -48.984375 58.9375 -49.828125 59.96875 -50.171875 C 61 -50.515625 61.984375 -50.457031 62.921875 -50 C 63.867188 -49.550781 64.617188 -48.773438 65.171875 -47.671875 C 65.722656 -46.566406 65.910156 -45.269531 65.734375 -43.78125 C 65.453125 -41.3125 64.867188 -38.5625 63.984375 -35.53125 C 63.097656 -32.507812 61.957031 -29.429688 60.5625 -26.296875 C 59.175781 -23.171875 57.570312 -20.179688 55.75 -17.328125 C 53.925781 -14.484375 51.957031 -12 49.84375 -9.875 C 47.726562 -7.757812 45.503906 -6.175781 43.171875 -5.125 C 40.847656 -4.082031 38.476562 -3.800781 36.0625 -4.28125 C 33.644531 -4.769531 31.234375 -6.203125 28.828125 -8.578125 C 26.429688 -10.953125 24.070312 -14.503906 21.75 -19.234375 C 21.59375 -18.941406 21.132812 -18.222656 20.375 -17.078125 C 19.613281 -15.929688 18.71875 -14.597656 17.6875 -13.078125 C 16.664062 -11.566406 15.628906 -10.066406 14.578125 -8.578125 C 13.523438 -7.085938 12.613281 -5.800781 11.84375 -4.71875 C 11.082031 -3.644531 10.585938 -3.019531 10.359375 -2.84375 C 8.867188 -1.613281 7.164062 -0.898438 5.25 -0.703125 C 3.34375 -0.515625 1.398438 -0.742188 -0.578125 -1.390625 C -2.554688 -2.035156 -4.40625 -2.984375 -6.125 -4.234375 C -7.84375 -5.484375 -9.238281 -6.882812 -10.3125 -8.4375 C -11.1875 -9.769531 -11.632812 -11.207031 -11.65625 -12.75 C -11.675781 -14.289062 -11.488281 -15.894531 -11.09375 -17.5625 C -10.707031 -19.238281 -10.367188 -20.882812 -10.078125 -22.5 C -9.554688 -25.144531 -8.78125 -28.40625 -7.75 -32.28125 C -6.71875 -36.15625 -5.445312 -40.425781 -3.9375 -45.09375 C -2.4375 -49.769531 -0.765625 -54.609375 1.078125 -59.609375 C 2.929688 -64.617188 4.9375 -69.613281 7.09375 -74.59375 C 9.257812 -79.570312 11.523438 -84.3125 13.890625 -88.8125 C 16.253906 -93.320312 18.675781 -97.40625 21.15625 -101.0625 C 23.644531 -104.71875 26.164062 -107.71875 28.71875 -110.0625 C 31.28125 -112.414062 33.816406 -113.890625 36.328125 -114.484375 C 39.066406 -115.148438 41.664062 -115.125 44.125 -114.40625 C 46.59375 -113.695312 48.75 -112.453125 50.59375 -110.671875 C 52.445312 -108.898438 53.804688 -106.765625 54.671875 -104.265625 C 55.546875 -101.773438 55.738281 -99.066406 55.25 -96.140625 C 54.769531 -93.210938 53.429688 -90.226562 51.234375 -87.1875 C 48.503906 -83.425781 45.546875 -79.800781 42.359375 -76.3125 C 39.171875 -72.832031 36.019531 -69.453125 32.90625 -66.171875 C 29.789062 -62.898438 26.960938 -59.703125 24.421875 -56.578125 Z M 24.421875 -56.578125 "/></g></g></g><g fill="#c9fd06" fill-opacity="1"><g transform="translate(318.166675, 507.667035)"><g><path d="M 25.328125 -107.296875 C 28.460938 -111.054688 31.554688 -113.613281 34.609375 -114.96875 C 37.660156 -116.332031 40.476562 -116.765625 43.0625 -116.265625 C 45.65625 -115.773438 47.890625 -114.566406 49.765625 -112.640625 C 51.640625 -110.710938 52.972656 -108.359375 53.765625 -105.578125 C 54.554688 -102.796875 54.6875 -99.800781 54.15625 -96.59375 C 53.632812 -93.382812 52.253906 -90.234375 50.015625 -87.140625 C 48.378906 -84.867188 46.566406 -82.300781 44.578125 -79.4375 C 42.597656 -76.570312 40.539062 -73.566406 38.40625 -70.421875 C 36.269531 -67.285156 34.15625 -64.203125 32.0625 -61.171875 C 29.96875 -58.148438 27.960938 -55.320312 26.046875 -52.6875 C 24.128906 -50.050781 22.414062 -47.785156 20.90625 -45.890625 C 20.59375 -44.472656 20.175781 -43.050781 19.65625 -41.625 C 19.144531 -40.195312 18.640625 -38.488281 18.140625 -36.5 C 18.878906 -37.65625 19.863281 -39.101562 21.09375 -40.84375 C 22.320312 -42.582031 23.722656 -44.441406 25.296875 -46.421875 C 26.878906 -48.398438 28.550781 -50.328125 30.3125 -52.203125 C 33.007812 -54.992188 35.445312 -56.945312 37.625 -58.0625 C 39.8125 -59.175781 41.738281 -59.671875 43.40625 -59.546875 C 45.070312 -59.429688 46.539062 -58.898438 47.8125 -57.953125 C 49.09375 -57.015625 50.160156 -55.898438 51.015625 -54.609375 C 52.109375 -53.054688 53.160156 -51.410156 54.171875 -49.671875 C 55.179688 -47.941406 56.222656 -46.320312 57.296875 -44.8125 C 58.378906 -43.300781 59.523438 -42.117188 60.734375 -41.265625 C 61.953125 -40.410156 63.289062 -40.054688 64.75 -40.203125 C 66.21875 -40.347656 67.851562 -41.203125 69.65625 -42.765625 C 71.46875 -44.335938 73.472656 -46.800781 75.671875 -50.15625 C 76.546875 -51.476562 77.488281 -52.269531 78.5 -52.53125 C 79.519531 -52.800781 80.453125 -52.664062 81.296875 -52.125 C 82.148438 -51.582031 82.816406 -50.726562 83.296875 -49.5625 C 83.785156 -48.40625 83.957031 -47.082031 83.8125 -45.59375 C 83.4375 -42.195312 82.738281 -38.789062 81.71875 -35.375 C 80.707031 -31.957031 79.425781 -28.707031 77.875 -25.625 C 76.320312 -22.550781 74.539062 -19.847656 72.53125 -17.515625 C 70.53125 -15.191406 68.351562 -13.410156 66 -12.171875 C 63.65625 -10.941406 61.191406 -10.429688 58.609375 -10.640625 C 56.023438 -10.859375 53.359375 -11.992188 50.609375 -14.046875 C 47.859375 -16.097656 45.070312 -19.273438 42.25 -23.578125 C 41.445312 -24.828125 40.515625 -25.628906 39.453125 -25.984375 C 38.398438 -26.347656 37.128906 -26.023438 35.640625 -25.015625 C 34.148438 -24.015625 32.335938 -22.066406 30.203125 -19.171875 C 28.066406 -16.285156 25.46875 -12.207031 22.40625 -6.9375 C 21.25 -4.976562 19.753906 -3.523438 17.921875 -2.578125 C 16.097656 -1.640625 14.109375 -1.125 11.953125 -1.03125 C 9.804688 -0.945312 7.707031 -1.234375 5.65625 -1.890625 C 3.601562 -2.554688 1.789062 -3.507812 0.21875 -4.75 C -2.007812 -6.582031 -3.867188 -9.117188 -5.359375 -12.359375 C -6.847656 -15.597656 -7.675781 -19.671875 -7.84375 -24.578125 C -8.007812 -29.492188 -7.285156 -35.375 -5.671875 -42.21875 C -4.585938 -46.957031 -3.175781 -51.796875 -1.4375 -56.734375 C 0.289062 -61.679688 2.210938 -66.578125 4.328125 -71.421875 C 6.441406 -76.265625 8.6875 -80.898438 11.0625 -85.328125 C 13.4375 -89.765625 15.835938 -93.859375 18.265625 -97.609375 C 20.691406 -101.367188 23.046875 -104.597656 25.328125 -107.296875 Z M 25.328125 -107.296875 "/></g></g></g><g fill="#c9fd06" fill-opacity="1"><g transform="translate(398.629373, 498.592564)"><g><path d="M -0.734375 -3.875 C -3.535156 -5.644531 -5.640625 -7.9375 -7.046875 -10.75 C -8.453125 -13.570312 -9.289062 -16.726562 -9.5625 -20.21875 C -9.832031 -23.71875 -9.582031 -27.34375 -8.8125 -31.09375 C -8.039062 -34.84375 -6.828125 -38.550781 -5.171875 -42.21875 C -3.523438 -45.882812 -1.535156 -49.3125 0.796875 -52.5 C 3.128906 -55.6875 5.726562 -58.429688 8.59375 -60.734375 C 11.457031 -63.035156 14.53125 -64.726562 17.8125 -65.8125 C 21.101562 -66.894531 24.503906 -67.15625 28.015625 -66.59375 C 30.753906 -66.132812 33.328125 -65.160156 35.734375 -63.671875 C 38.140625 -62.191406 40.179688 -60.125 41.859375 -57.46875 C 43.535156 -54.8125 44.613281 -51.53125 45.09375 -47.625 C 45.644531 -43.664062 46.390625 -40.800781 47.328125 -39.03125 C 48.265625 -37.257812 49.347656 -36.273438 50.578125 -36.078125 C 51.816406 -35.890625 53.144531 -36.269531 54.5625 -37.21875 C 55.988281 -38.164062 57.40625 -39.40625 58.8125 -40.9375 C 60.21875 -42.46875 61.5625 -44.039062 62.84375 -45.65625 C 64.132812 -47.28125 65.273438 -48.65625 66.265625 -49.78125 C 67.078125 -50.738281 68.148438 -51.253906 69.484375 -51.328125 C 70.828125 -51.410156 72.125 -51.078125 73.375 -50.328125 C 74.632812 -49.578125 75.550781 -48.445312 76.125 -46.9375 C 76.707031 -45.425781 76.632812 -43.5625 75.90625 -41.34375 C 75.269531 -39.332031 74.316406 -36.957031 73.046875 -34.21875 C 71.773438 -31.488281 70.335938 -28.71875 68.734375 -25.90625 C 67.378906 -23.507812 65.722656 -21.054688 63.765625 -18.546875 C 61.816406 -16.035156 59.632812 -13.859375 57.21875 -12.015625 C 54.8125 -10.179688 52.234375 -9.054688 49.484375 -8.640625 C 47.535156 -8.359375 45.378906 -8.546875 43.015625 -9.203125 C 40.660156 -9.859375 38.46875 -11.195312 36.4375 -13.21875 C 34.40625 -15.25 32.84375 -18.1875 31.75 -22.03125 C 31.082031 -20.675781 30.304688 -19.082031 29.421875 -17.25 C 28.535156 -15.425781 27.523438 -13.5625 26.390625 -11.65625 C 25.265625 -9.757812 23.988281 -8.019531 22.5625 -6.4375 C 21.132812 -4.851562 19.554688 -3.65625 17.828125 -2.84375 C 15.066406 -1.5625 11.992188 -0.972656 8.609375 -1.078125 C 5.222656 -1.179688 2.109375 -2.113281 -0.734375 -3.875 Z M 15.453125 -37.421875 C 14.492188 -35.023438 13.828125 -33.039062 13.453125 -31.46875 C 13.078125 -29.90625 12.992188 -28.957031 13.203125 -28.625 C 13.410156 -28.289062 13.914062 -28.726562 14.71875 -29.9375 C 15.53125 -31.144531 16.648438 -33.304688 18.078125 -36.421875 C 19.535156 -39.628906 20.414062 -41.921875 20.71875 -43.296875 C 21.03125 -44.679688 20.9375 -45.320312 20.4375 -45.21875 C 19.945312 -45.125 19.226562 -44.382812 18.28125 -43 C 17.34375 -41.613281 16.398438 -39.753906 15.453125 -37.421875 Z M 15.453125 -37.421875 "/></g></g></g><g fill="#c9fd06" fill-opacity="1"><g transform="translate(468.704932, 490.689541)"><g><path d="M 52.671875 -39.265625 C 49.847656 -34.929688 46.921875 -31.675781 43.890625 -29.5 C 40.867188 -27.332031 38.023438 -26.097656 35.359375 -25.796875 C 32.703125 -25.492188 30.488281 -25.988281 28.71875 -27.28125 C 26.945312 -28.582031 25.867188 -30.546875 25.484375 -33.171875 C 25.109375 -35.804688 25.738281 -38.9375 27.375 -42.5625 C 26.96875 -42.925781 26.359375 -42.617188 25.546875 -41.640625 C 24.742188 -40.660156 23.625 -38.695312 22.1875 -35.75 C 21.082031 -33.375 19.988281 -30.800781 18.90625 -28.03125 C 17.820312 -25.269531 16.765625 -22.484375 15.734375 -19.671875 C 14.703125 -16.867188 13.71875 -14.222656 12.78125 -11.734375 C 11.84375 -9.242188 10.96875 -7.113281 10.15625 -5.34375 C 9.320312 -3.625 8.113281 -2.367188 6.53125 -1.578125 C 4.945312 -0.785156 3.1875 -0.394531 1.25 -0.40625 C -0.675781 -0.425781 -2.578125 -0.769531 -4.453125 -1.4375 C -6.335938 -2.113281 -8.035156 -3.050781 -9.546875 -4.25 C -11.066406 -5.457031 -12.191406 -6.859375 -12.921875 -8.453125 C -13.660156 -10.046875 -13.796875 -11.734375 -13.328125 -13.515625 C -12.992188 -14.921875 -12.476562 -16.84375 -11.78125 -19.28125 C -11.09375 -21.726562 -10.296875 -24.476562 -9.390625 -27.53125 C -8.484375 -30.582031 -7.550781 -33.710938 -6.59375 -36.921875 C -5.644531 -40.128906 -4.6875 -43.207031 -3.71875 -46.15625 C -2.75 -49.113281 -1.890625 -51.738281 -1.140625 -54.03125 C -0.390625 -56.332031 0.226562 -58.039062 0.71875 -59.15625 C 1.363281 -60.75 2.335938 -61.953125 3.640625 -62.765625 C 4.941406 -63.578125 6.359375 -64.054688 7.890625 -64.203125 C 9.421875 -64.347656 10.914062 -64.25 12.375 -63.90625 C 13.84375 -63.5625 15.070312 -63.050781 16.0625 -62.375 C 17.050781 -61.695312 17.644531 -60.9375 17.84375 -60.09375 C 17.914062 -59.90625 17.90625 -59.675781 17.8125 -59.40625 C 17.71875 -59.132812 17.648438 -58.71875 17.609375 -58.15625 C 17.453125 -57.238281 17.484375 -56.789062 17.703125 -56.8125 C 17.929688 -56.832031 18.210938 -57.054688 18.546875 -57.484375 C 18.890625 -57.910156 19.132812 -58.175781 19.28125 -58.28125 C 21.945312 -61.21875 24.300781 -63.296875 26.34375 -64.515625 C 28.394531 -65.742188 30.160156 -66.441406 31.640625 -66.609375 C 33.117188 -66.773438 34.382812 -66.738281 35.4375 -66.5 C 37.46875 -66.0625 38.941406 -65.234375 39.859375 -64.015625 C 40.785156 -62.804688 41.410156 -61.40625 41.734375 -59.8125 C 42.066406 -58.226562 42.296875 -56.65625 42.421875 -55.09375 C 42.546875 -53.53125 42.789062 -52.144531 43.15625 -50.9375 C 43.519531 -49.738281 44.207031 -48.90625 45.21875 -48.4375 C 46.238281 -47.96875 47.8125 -48.082031 49.9375 -48.78125 C 50.914062 -49 51.820312 -48.671875 52.65625 -47.796875 C 53.488281 -46.929688 54.070312 -45.914062 54.40625 -44.75 C 54.75 -43.59375 54.703125 -42.632812 54.265625 -41.875 C 53.984375 -41.4375 53.707031 -40.992188 53.4375 -40.546875 C 53.175781 -40.109375 52.921875 -39.679688 52.671875 -39.265625 Z M 52.671875 -39.265625 "/></g></g></g><g fill="#c9fd06" fill-opacity="1"><g transform="translate(522.296551, 484.645553)"><g><path d="M 23.515625 0.9375 C 19.578125 2.5 15.710938 3.046875 11.921875 2.578125 C 8.128906 2.117188 4.6875 0.820312 1.59375 -1.3125 C -1.488281 -3.457031 -3.960938 -6.304688 -5.828125 -9.859375 C -7.703125 -13.421875 -8.71875 -17.472656 -8.875 -22.015625 C -9.164062 -25.847656 -8.851562 -29.796875 -7.9375 -33.859375 C -7.019531 -37.929688 -5.566406 -41.867188 -3.578125 -45.671875 C -1.597656 -49.472656 0.828125 -52.921875 3.703125 -56.015625 C 6.578125 -59.117188 9.863281 -61.613281 13.5625 -63.5 C 17.269531 -65.394531 21.269531 -66.457031 25.5625 -66.6875 C 27.28125 -66.769531 29 -66.53125 30.71875 -65.96875 C 32.4375 -65.40625 33.984375 -64.601562 35.359375 -63.5625 C 36.742188 -62.53125 37.84375 -61.347656 38.65625 -60.015625 C 40.394531 -57.253906 41.28125 -54.476562 41.3125 -51.6875 C 41.351562 -48.90625 40.804688 -46.226562 39.671875 -43.65625 C 38.535156 -41.09375 36.992188 -38.734375 35.046875 -36.578125 C 33.109375 -34.429688 31.003906 -32.609375 28.734375 -31.109375 C 26.472656 -29.609375 24.242188 -28.539062 22.046875 -27.90625 C 19.859375 -27.269531 17.921875 -27.171875 16.234375 -27.609375 C 16.554688 -25.703125 17.296875 -24.40625 18.453125 -23.71875 C 19.585938 -23.039062 21.015625 -22.972656 22.734375 -23.515625 C 24.453125 -24.066406 26.363281 -25.046875 28.46875 -26.453125 C 30.570312 -27.859375 32.707031 -29.492188 34.875 -31.359375 C 37.050781 -33.234375 39.179688 -35.179688 41.265625 -37.203125 C 43.359375 -39.222656 45.265625 -41.140625 46.984375 -42.953125 C 48.710938 -44.773438 50.140625 -46.3125 51.265625 -47.5625 C 52.535156 -48.96875 53.78125 -49.664062 55 -49.65625 C 56.226562 -49.644531 57.296875 -49.21875 58.203125 -48.375 C 59.109375 -47.539062 59.738281 -46.546875 60.09375 -45.390625 C 60.457031 -44.234375 60.429688 -43.226562 60.015625 -42.375 C 58.734375 -39.78125 57.125 -36.820312 55.1875 -33.5 C 53.25 -30.1875 51.078125 -26.769531 48.671875 -23.25 C 46.273438 -19.726562 43.695312 -16.335938 40.9375 -13.078125 C 38.1875 -9.816406 35.335938 -6.953125 32.390625 -4.484375 C 29.441406 -2.023438 26.484375 -0.21875 23.515625 0.9375 Z M 23.515625 0.9375 "/></g></g></g></svg>